<svg xmlns="http://www.w3.org/2000/svg" width="22" height="22" viewBox="0 0 22 22">
  <g id="Blog" transform="translate(-910 -205)">
    <rect id="Rectangle_5648" data-name="Rectangle 5648" width="22" height="22" transform="translate(910 205)" fill="none"/>
    <g id="blog-2" data-name="blog" transform="translate(865.014 651.287)">
      <path id="Path_16754" data-name="Path 16754" d="M49.834-442.614a2.723,2.723,0,0,0-1.247.563,2.745,2.745,0,0,0-.665,1.015,3.129,3.129,0,0,0-.106,1.019l-.016.759H64.173v-.661a3.5,3.5,0,0,0-.079-.968,2.311,2.311,0,0,0-1.515-1.625l-.315-.11-6.157,0C52.721-442.63,49.9-442.622,49.834-442.614Zm11.538,1.77a.623.623,0,0,1,0,1.042.616.616,0,0,1-.948-.515.581.581,0,0,1,.3-.539A.607.607,0,0,1,61.372-440.844Z" transform="translate(0)"/>
      <path id="Path_16755" data-name="Path 16755" d="M48.008-320.9l.012,4.1.09.264a2.822,2.822,0,0,0,.287.563,2.384,2.384,0,0,0,1.318.952c.22.067.531.071,6.467.071h6.235l.334-.11a2.281,2.281,0,0,0,1.534-1.625c.075-.291.079-.448.079-4.312v-4H48Zm12.667-1.928a.611.611,0,0,1-.024,1.09c-.165.083-.2.083-4.469.083s-4.3,0-4.469-.083a.608.608,0,0,1-.035-1.082l.157-.094h8.682Zm-4.17,3.367a.677.677,0,0,1,.3.606.608.608,0,0,1-.3.452l-.13.09H54.09a13.278,13.278,0,0,1-2.392-.059.663.663,0,0,1-.319-.72.762.762,0,0,1,.421-.441c.063-.02,1.113-.031,2.337-.028l2.223.008Z" transform="translate(-0.192 -112.999)"/>
    </g>
  </g>
</svg>
