<svg xmlns="http://www.w3.org/2000/svg" xmlns:xlink="http://www.w3.org/1999/xlink" width="38" height="38" viewBox="0 0 38 38">
  <defs>
    <linearGradient id="linear-gradient1" x1="0.5" x2="0.5" y2="1" gradientUnits="objectBoundingBox">
      <stop offset="0" stop-color="#ee0d73"/>
      <stop offset="1" stop-color="#fe6308"/>
    </linearGradient>
  </defs>
  <g id="Group_4048" data-name="Group 4048" transform="translate(-897 -996)">
    <rect id="Rectangle_24601" data-name="Rectangle 2460" width="38" height="38" transform="translate(897 996)" fill="none"/>
    <g id="file" transform="translate(865.608 1002.794)">
      <g id="Group_4039" data-name="Group 4039" transform="translate(40.097)">
        <g id="Group_4038" data-name="Group 4038">
          <path id="Path_161831" data-name="Path 161831" d="M59.509,3.235H57.45V1.177A1.18,1.18,0,0,0,56.274,0h-15A1.18,1.18,0,0,0,40.1,1.177V20a1.18,1.18,0,0,0,1.176,1.176h2.059v2.059a1.18,1.18,0,0,0,1.177,1.177h10a3.433,3.433,0,0,0,2.033-.806l3.287-3.094a3.124,3.124,0,0,0,.857-1.983V4.412A1.18,1.18,0,0,0,59.509,3.235ZM43.332,4.412V20.294H41.273A.3.3,0,0,1,40.979,20V1.177a.3.3,0,0,1,.294-.294h15a.3.3,0,0,1,.294.294V3.235H44.509A1.18,1.18,0,0,0,43.332,4.412ZM59.223,19.87l-3.287,3.093a1.561,1.561,0,0,1-.252.184V20.441a.738.738,0,0,1,.735-.735h2.943A1.236,1.236,0,0,1,59.223,19.87Zm.579-1.34a1.372,1.372,0,0,1-.04.294H56.42A1.621,1.621,0,0,0,54.8,20.441v3.053a1.538,1.538,0,0,1-.294.036h-10a.3.3,0,0,1-.294-.294V4.412a.3.3,0,0,1,.294-.294h15a.3.3,0,0,1,.294.294Z" transform="translate(-40.097)" fill="url(#linear-gradient1)"/>
        </g>
      </g>
      <g id="Group_40411" data-name="Group 4041" transform="translate(47.303 7.353)">
        <g id="Group_40401" data-name="Group 4040">
          <path id="Path_1618411" data-name="Path 1618411" d="M200.206,154.216h-8.529a.441.441,0,1,0,0,.882h8.529a.441.441,0,0,0,0-.882Z" transform="translate(-191.235 -154.216)" fill="url(#linear-gradient1)"/>
        </g>
      </g>
      <g id="Group_40431" data-name="Group 4043" transform="translate(47.303 13.235)">
        <g id="Group_40421" data-name="Group 4042">
          <path id="Path_161851" data-name="Path 161851" d="M200.206,277.59h-8.529a.441.441,0,1,0,0,.882h8.529a.441.441,0,0,0,0-.882Z" transform="translate(-191.235 -277.59)" fill="url(#linear-gradient1)"/>
        </g>
      </g>
      <g id="Group_40451" data-name="Group 4045" transform="translate(47.303 16.177)">
        <g id="Group_40441" data-name="Group 4044">
          <path id="Path_161861" data-name="Path 161861" d="M196.383,339.277h-4.706a.441.441,0,1,0,0,.882h4.706a.441.441,0,0,0,0-.882Z" transform="translate(-191.236 -339.277)" fill="url(#linear-gradient1)"/>
        </g>
      </g>
      <g id="Group_40471" data-name="Group 4047" transform="translate(47.303 10.294)">
        <g id="Group_40461" data-name="Group 4046">
          <path id="Path_161871" data-name="Path 161871" d="M200.206,215.9h-8.529a.441.441,0,1,0,0,.882h8.529a.441.441,0,0,0,0-.882Z" transform="translate(-191.235 -215.903)" fill="url(#linear-gradient1)"/>
        </g>
      </g>
    </g>
  </g>
</svg>
