<svg xmlns="http://www.w3.org/2000/svg" xmlns:xlink="http://www.w3.org/1999/xlink" width="38" height="38" viewBox="0 0 38 38">
  <defs>
    <linearGradient id="linear-gradient" x1="0.5" x2="0.5" y2="1" gradientUnits="objectBoundingBox">
      <stop offset="0" stop-color="#ee0d73"/>
      <stop offset="1" stop-color="#fe6308"/>
    </linearGradient>
  </defs>
  <g id="Group_4048" data-name="Group 4048" transform="translate(-897 -996)">
    <rect id="Rectangle_2460" data-name="Rectangle 2460" width="38" height="38" transform="translate(897 996)" fill="none"/>
    <g id="deal_1_" data-name="deal (1)" transform="translate(898.478 914.61)">
      <path id="Path_16910" data-name="Path 16910" d="M-433.02-.177a1.216,1.216,0,0,1,.433.77l.04.149c.044.162.086.324.128.486l.091.339q.12.447.237.894t.241.905q.177.663.352,1.327l.036.138q.051.2.1.391l.038.147a2.225,2.225,0,0,1,.1.891.887.887,0,0,1-.346.346.827.827,0,0,1-.6-.157,1.087,1.087,0,0,1-.205-.44l-.057-.2-.059-.214-.063-.223q-.1-.353-.2-.706l-.062-.227q-.182-.667-.359-1.336-.091-.343-.183-.686l-.116-.439-.055-.206-.05-.189-.044-.166a1.116,1.116,0,0,1-.031-.35l-.258.07-.947.255-.41.111-.589.159-.186.05-.172.046-.152.041a.775.775,0,0,1-.263.029l.722,2.71.336,1.259.325,1.218.128.481q.32,1.2.645,2.4l.05.184q.114.418.23.836l.079.288.068.248a1.447,1.447,0,0,1,.047.483l1.2-.322.41-.109.589-.157.186-.049.172-.046.152-.04a.826.826,0,0,0,.263-.106l-.064-.226q-.117-.418-.232-.837l-.1-.361q-.073-.261-.144-.522L-431.6,9a1.713,1.713,0,0,1-.028-1.176.728.728,0,0,1,.545-.177.656.656,0,0,1,.448.418,7.917,7.917,0,0,1,.292.918l.05.184.1.383c.052.194.106.387.16.581l.1.375.048.173a2.63,2.63,0,0,1,.111,1.191,2.532,2.532,0,0,1-1.3.531l-.261.069-.545.142-.7.182-.667.174-.251.066-.235.06-.206.053a2.239,2.239,0,0,1-.612.038,1.544,1.544,0,0,1-.554-.9l-.195.116-.259.152-.128.076a2.168,2.168,0,0,1-1.148.347l.045.134a2.29,2.29,0,0,1-.13,1.9,2.3,2.3,0,0,1-1.183.965,1.381,1.381,0,0,1-.463.043l.012.172a2.121,2.121,0,0,1-.358,1.42l-.081.123a2.139,2.139,0,0,1-1.3.777l.01.14a2.364,2.364,0,0,1-.507,1.686,2.014,2.014,0,0,1-1.411.675h-.418a1.7,1.7,0,0,1-.581-.079l-.013.238a2.117,2.117,0,0,1-.856,1.373,2.231,2.231,0,0,1-1.692.4,3.621,3.621,0,0,1-1.164-.632l-.309-.226-.135-.1a.711.711,0,0,0-.33-.15,1.744,1.744,0,0,0-.337.164,2,2,0,0,1-1.519.186,2.159,2.159,0,0,1-.9-.637c-.141-.152-.141-.152-.355-.129q-.208.1-.415.208a2.132,2.132,0,0,1-1.523-.138,2.157,2.157,0,0,1-.969-1.038v-.208l-.208.069a2.3,2.3,0,0,1-1.528-.366,2.307,2.307,0,0,1-.687-.949v-.138l-.208.069a2.009,2.009,0,0,1-1.472-.389,2.157,2.157,0,0,1-.838-1.571,2.476,2.476,0,0,1,.425-1.187c.108-.174.108-.174.042-.373l-.094-.218-.092-.246-.1-.268c-.127-.334-.246-.668-.352-1.01a2.442,2.442,0,0,0-.907-1.452h-.138l-.031.154c-.143.622-.143.622-.363.832-.494.261-1.164-.037-1.675-.172l-.256-.068-.534-.142-.683-.179-.655-.174-.247-.064-.23-.062-.2-.053a.984.984,0,0,1-.454-.349,4.065,4.065,0,0,1,.235-1.578l.073-.274q.076-.285.154-.57.1-.364.2-.728.075-.282.151-.564l.107-.4.067-.246.058-.215c.179-.543.179-.543.4-.718a.9.9,0,0,1,.567.03.786.786,0,0,1,.277.346,6.692,6.692,0,0,1-.27,1.338l-.06.223q-.094.351-.189.7l-.189.7-.118.437-.054.2-.047.175c-.043.17-.078.341-.111.513l.206.026a7.617,7.617,0,0,1,.856.187l.161.042.5.131.344.089.838.218q.4-1.482.8-2.965l.048-.176.193-.715q.288-1.065.576-2.13l.351-1.3.207-.765q.1-.358.194-.717l.105-.386.062-.232.054-.2a1.079,1.079,0,0,0,.038-.452l-2.838-.761-.235.868-.187.686q-.1.362-.2.724t-.19.7q-.054.2-.107.4l-.067.244-.058.214a1.183,1.183,0,0,1-.275.463,1.086,1.086,0,0,1-.645.022.581.581,0,0,1-.255-.368,8.05,8.05,0,0,1,.311-1.5l.073-.274q.076-.286.153-.571.1-.365.194-.73.075-.283.15-.565l.106-.4.066-.246.058-.216a3.335,3.335,0,0,1,.274-.619,2.511,2.511,0,0,1,1.658.148l.256.068.532.143q.339.092.68.181l.653.175.246.064.229.063.2.054a1.6,1.6,0,0,1,.531.35.622.622,0,0,1,.03.294c0,.073,0,.073,0,.148a6.47,6.47,0,0,1-.164.734l.506.164.141.047a6.37,6.37,0,0,0,2.079.287h.231c.445,0,.885-.024,1.329-.065a5.3,5.3,0,0,1,3.094.516,1.149,1.149,0,0,0,.373.16c.174-.08.339-.164.506-.255a6.035,6.035,0,0,1,4.109-.437,14.343,14.343,0,0,0,2.319.156h.167a13.957,13.957,0,0,0,4.665-.71l-.069-.242a2.4,2.4,0,0,1-.069-.865,1.239,1.239,0,0,1,.793-.441l.154-.042.494-.132.34-.091.675-.18q.408-.108.815-.22l.42-.114.188-.052A2.452,2.452,0,0,1-433.02-.177Zm-4.754,3.683a20.549,20.549,0,0,1-2.652.539l-.144.02a15.741,15.741,0,0,1-1.876.067h-.186a15.835,15.835,0,0,1-3.055-.266c-1.758-.246-3,.5-4.463,1.367q-.574.338-1.154.668-.55.315-1.1.635l-.182.105q-.235.136-.467.276l-.132.076a1.392,1.392,0,0,0-.6.72,1.513,1.513,0,0,0,.138,1.069,1.374,1.374,0,0,0,.906.554c.749.062,1.506-.552,2.122-.918l.436-.255q.375-.22.749-.444l.291-.171.128-.079a1.109,1.109,0,0,1,.837-.172,3.1,3.1,0,0,1,.407.394,8.5,8.5,0,0,0,1.108,1l.147.112a5.912,5.912,0,0,0,.688.454c.211.121.211.121.281.26.031.425.031.425-.069.619a.913.913,0,0,1-.692.074,8.941,8.941,0,0,1-2.005-1.538.669.669,0,0,0-.279-.193,2.751,2.751,0,0,0-.4.214l-.121.07-.256.149-.4.232-.763.443q-.322.187-.645.372l-.125.073a2.523,2.523,0,0,1-1.877.266,2.343,2.343,0,0,1-1.022-.573h-.138l-.06-.121-.15-.3-.071-.14-.072-.141a2.785,2.785,0,0,1-.082-1.715,2.882,2.882,0,0,1,.227-.424l.069-.128A5,5,0,0,1-452.552,5.4l.238-.137.675-.387.177-.1.792-.452a2.028,2.028,0,0,0-1.383-.364c-.366,0-.725.019-1.089.052a9.485,9.485,0,0,1-4.16-.4.445.445,0,0,0-.29-.053c-.408,1.361-.777,2.731-1.142,4.1q-.126.472-.253.944-.1.367-.2.734l-.093.349q-.065.242-.129.484l-.039.143a1.953,1.953,0,0,0-.087.718.763.763,0,0,0,.277.2,5.624,5.624,0,0,1,.64.446l.127.1a4.337,4.337,0,0,1,.778,1.679l.075.242q.091.292.18.585h.138c.083-.128.16-.26.234-.394a2.086,2.086,0,0,1,1.22-1.129,2.242,2.242,0,0,1,1.679.251,1.727,1.727,0,0,1,.675.787l.078.155.061.122.16-.007a2.163,2.163,0,0,1,1.782.611,2.186,2.186,0,0,1,.412.78l.172-.01a2.29,2.29,0,0,1,1.8.584,2.69,2.69,0,0,1,.517,1.156l.162.021a2.152,2.152,0,0,1,1.6.807,2.1,2.1,0,0,1,.31,1.6,3.162,3.162,0,0,1-.359.761c-.068.114-.132.23-.194.346.109.327.379.445.658.632l.163.115a1.706,1.706,0,0,0,1.117.36,1.241,1.241,0,0,0,.761-.692,1.259,1.259,0,0,0-.277-1.038,4.826,4.826,0,0,0-.636-.4l-.34-.2-.152-.085a.371.371,0,0,1-.187-.216.7.7,0,0,1,.112-.58.7.7,0,0,1,.58-.112,2.822,2.822,0,0,1,.427.215l.119.067c.125.071.25.143.375.215l.249.141c.3.168.592.337.885.509l.164.095.138.081a1.187,1.187,0,0,0,.758.06,1.158,1.158,0,0,0,.623-.623,1.1,1.1,0,0,0-.009-.757,2.536,2.536,0,0,0-1.1-.835q-.411-.23-.82-.462c-.122-.069-.245-.137-.367-.2l-.23-.13-.208-.116a1.033,1.033,0,0,1-.382-.472.671.671,0,0,1,.208-.554,1.972,1.972,0,0,1,1.389.446l.232.133q.569.328,1.124.678a1.877,1.877,0,0,0,1.2.4,1.241,1.241,0,0,0,.761-.692,1.457,1.457,0,0,0-.1-.844,7.079,7.079,0,0,0-1.916-1.231l-.225-.124-.2-.111c-.51-.309-.51-.309-.576-.532a1.211,1.211,0,0,1,.115-.551.864.864,0,0,1,.619-.069,7.9,7.9,0,0,1,.831.446l.232.133c.472.272.943.548,1.406.835a1.457,1.457,0,0,0,.992.248,1.18,1.18,0,0,0,.692-.554,1.434,1.434,0,0,0,0-.844,5.331,5.331,0,0,0-1.791-1.244c-.359-.2-.714-.405-1.055-.639a3.482,3.482,0,0,0-2.283-.594,3.47,3.47,0,0,1-1.244-.14.969.969,0,0,1-.208-.346c.087-.433.087-.433.208-.554.371-.022.742-.025,1.113-.028l.374-.007a3.157,3.157,0,0,1,2.043.45l.285.16.26.156.146.086c.293.172.58.352.865.538a2.475,2.475,0,0,0,1.9.647l.21-.063.2-.048a4.007,4.007,0,0,0,1.393-.852c-.121-.668-.3-1.32-.473-1.975l-.1-.375-.208-.784q-.132-.5-.264-.995l-.205-.775-.1-.366q-.312-1.178-.66-2.344A1.579,1.579,0,0,0-437.773,3.506Zm-18.158,10.507a2.144,2.144,0,0,0-.268.427l-.07.124c-.073.13-.144.261-.216.392l-.215.387-.14.252c-.169.306-.348.6-.536.9a1.283,1.283,0,0,0-.147.5,1.344,1.344,0,0,0,.485.761,1.018,1.018,0,0,0,.74,0,3.429,3.429,0,0,0,.775-1l.072-.126.222-.395.224-.4.2-.358q.114-.2.235-.4a1.011,1.011,0,0,0,.161-.573,1.416,1.416,0,0,0-.437-.692A.972.972,0,0,0-455.931,14.013Zm2.338,1.494c-.083.133-.16.268-.235.405l-.178.315-.094.169c-.107.189-.216.375-.327.561l-.227.386-.11.184a1.909,1.909,0,0,0-.336.984,1.084,1.084,0,0,0,.467.623,1.089,1.089,0,0,0,.779,0,5.989,5.989,0,0,0,.939-1.376l.136-.238.26-.46q.112-.2.227-.4l.1-.165.082-.14a1.1,1.1,0,0,0,.061-.687.827.827,0,0,0-.4-.472A.885.885,0,0,0-453.593,15.507Zm2.577,1.206a5.3,5.3,0,0,0-.714,1.112c-.461.827-.461.827-.629,1.1a1.3,1.3,0,0,0-.318,1.043,1.173,1.173,0,0,0,.623.623.782.782,0,0,0,.621-.118,1.514,1.514,0,0,0,.452-.523l.139-.238.08-.139c.111-.191.226-.378.342-.566l.266-.441.132-.213a2.184,2.184,0,0,0,.392-1.223,1.032,1.032,0,0,0-.485-.554A.992.992,0,0,0-451.016,16.712Zm1.961,2.093a6.222,6.222,0,0,0-.425.667l-.085.14a1.392,1.392,0,0,0-.2.976,1.006,1.006,0,0,0,.549.54.97.97,0,0,0,.778-.157,2.668,2.668,0,0,0,.572-.815l.113-.192a1.562,1.562,0,0,0,.272-1.106,1.311,1.311,0,0,0-.485-.51C-448.466,18.193-448.749,18.43-449.056,18.805Z" transform="translate(465 89)" stroke="#fff" stroke-width="0.2" fill="url(#linear-gradient)"/>
      <path id="Path_16911" data-name="Path 16911" d="M-10.336-.33a2.253,2.253,0,0,1,.65,1.581.962.962,0,0,1-.131.6,1,1,0,0,1-.727.1,1.307,1.307,0,0,1-.394-.809l-.047-.163A2.956,2.956,0,0,1-11.1-.053C-10.9-.367-10.689-.386-10.336-.33Z" transform="translate(40.932 92.268)" stroke="#fff" stroke-width="0.2" fill="url(#linear-gradient)"/>
      <path id="Path_16912" data-name="Path 16912" d="M-15-.264a.574.574,0,0,1,.277.277,3.105,3.105,0,0,1-.156,1.164l-.043.157a1.088,1.088,0,0,1-.285.547.764.764,0,0,1-.555.071,1.019,1.019,0,0,1-.346-.346,2.8,2.8,0,0,1,.156-1.09l.043-.158a1.119,1.119,0,0,1,.283-.551A.971.971,0,0,1-15-.264Z" transform="translate(19.985 92.341)" stroke="#fff" stroke-width="0.2" fill="url(#linear-gradient)"/>
    </g>
  </g>
</svg>
