<svg xmlns="http://www.w3.org/2000/svg" xmlns:xlink="http://www.w3.org/1999/xlink" width="38" height="38" viewBox="0 0 38 38">
  <defs>
    <linearGradient id="linear-gradient" x1="0.5" x2="0.5" y2="1" gradientUnits="objectBoundingBox">
      <stop offset="0" stop-color="#ee0d73"/>
      <stop offset="1" stop-color="#fe6308"/>
    </linearGradient>
  </defs>
  <g id="Group_4048" data-name="Group 4048" transform="translate(-897 -996)">
    <rect id="Rectangle_2460" data-name="Rectangle 2460" width="38" height="38" transform="translate(897 996)" fill="none"/>
    <g id="public-service" transform="translate(891.655 997.454)">
      <path id="Path_16913" data-name="Path 16913" d="M-453.286-5.444a1.571,1.571,0,0,1,.588,1.035,2.66,2.66,0,0,1-.81,1.861c-.157.2-.309.412-.458.622l-.139.2-.072.1c-.238.335-.48.667-.721,1l-.278.386q-.522.725-1.054,1.444-.25.338-.495.681a5.354,5.354,0,0,1-3.484,2.543,8.143,8.143,0,0,1-1.073.04h-.826l-.891,0-2.213.006-1.722,0-.885,0-.552,0h-.254a2.334,2.334,0,0,0-1.778.535c-.158.166-.308.336-.455.512a1.624,1.624,0,0,0,.522.607.745.745,0,0,1,.258.419c-.014.349-.342.582-.575.811l-.165.167q-.173.174-.348.346c-.149.147-.3.3-.444.445q-.17.172-.343.343l-.163.164c-.422.428-.422.428-.713.509-.529-.162-.957-.76-1.344-1.147l-.208-.208-.562-.562-.589-.589-.987-.987-1.142-1.142-.981-.981-.586-.586-.55-.55-.2-.2-.275-.275-.156-.156a.64.64,0,0,1-.207-.514,1.829,1.829,0,0,1,.568-.707l.165-.167q.173-.174.348-.346.224-.22.443-.445.17-.172.343-.343l.163-.164c.431-.437.431-.437.729-.495a.611.611,0,0,1,.375.205l.1.1.1.107.1.107c.082.087.163.175.243.263a1.268,1.268,0,0,0,.413-.287l.106-.106.113-.115.118-.119.373-.378.371-.375.23-.233c.217-.22.441-.427.676-.628.129-.114.246-.236.364-.362a4.591,4.591,0,0,1,3.391-1.445c.271,0,.542-.005.813,0h.5a6.537,6.537,0,0,1,3.5.868l.057.057c.178.006.355.008.533.007h.537l.781,0q.728,0,1.455,0,.506,0,1.011,0h.384a2.824,2.824,0,0,1,2.193.6,3.478,3.478,0,0,1,.441.745l.114.227.259-.256.146-.144c.16-.162.307-.333.456-.5.177-.2.362-.394.546-.589.265-.28.529-.561.789-.846l.147-.16c.12-.131.239-.264.358-.4l.209-.231.1-.11A1.571,1.571,0,0,1-453.286-5.444Zm-1.565.694-.137.141-.137.139c-.117.126-.23.252-.343.382-.2.231-.409.454-.619.677q-.457.485-.906.978c-.184.2-.371.4-.558.6q-.363.388-.721.778l-.152.165c-.1.115-.206.23-.306.348a2.408,2.408,0,0,1-1.323.9c-.076.005-.152.007-.227.008h-2.043l-.952,0h-1.719c-.334,0-.334,0-.461-.129a1.488,1.488,0,0,1,0-.4,1,1,0,0,1,.653-.128h.47l.508,0q.723,0,1.446,0l.884,0h.336c.157,0,.315,0,.472,0h.139a1.4,1.4,0,0,0,.949-.357l.077-.1.079-.1a1.427,1.427,0,0,0,.184-1.017,1.393,1.393,0,0,0-.626-.8,1.609,1.609,0,0,0-.843-.123h-.17l-.365,0c-.26,0-.52,0-.78,0-.484,0-.967,0-1.451.007q-.505.005-1.011,0-.191,0-.383,0a3.251,3.251,0,0,1-2.107-.569A3.836,3.836,0,0,0-469-3.748h-.52l-.53,0a4.543,4.543,0,0,0-3.536,1.207l-.176.161c-.861.788-1.674,1.628-2.5,2.455l-.114.114,4.833,4.833a.954.954,0,0,0,.412-.327,2.582,2.582,0,0,1,1.635-.924c.291-.016.582-.015.874-.014h.827l.894,0q1.271,0,2.543,0l1.406,0h.886l.555,0h.254a3.978,3.978,0,0,0,2.975-1.117,12.189,12.189,0,0,0,1.159-1.473c.145-.2.292-.407.438-.61l.19-.262.1-.132.278-.386q.473-.657.954-1.309a5.773,5.773,0,0,0,1.706-2.871,1.2,1.2,0,0,0-.569-.569A.77.77,0,0,0-454.851-4.75ZM-477.98-.2l-.094.095-.107.107-.116.117-.118.119-.375.377-.254.255-.624.627a1.525,1.525,0,0,0,.38.507l.083.083.275.274.2.2.535.533.558.558,1.058,1.055,1.2,1.2,2.477,2.472a1.334,1.334,0,0,0,.4-.278l.1-.1.106-.108.11-.11.346-.349.235-.237.575-.581c-.3-.368-.637-.7-.974-1.038l-.191-.192-.517-.517-.542-.542-.909-.908-1.052-1.052-.9-.9-.539-.539-.506-.506-.186-.186-.253-.253-.143-.143C-477.863-.3-477.863-.3-477.98-.2Z" transform="translate(491 22.586)" fill="url(#linear-gradient)"/>
      <path id="Path_16914" data-name="Path 16914" d="M-160.045-5.806A2.431,2.431,0,0,1-159-4.221a2.584,2.584,0,0,1-.491,1.865l.177.084a3.38,3.38,0,0,1,1.756,1.395l.212-.008a2.574,2.574,0,0,1,2.062.633l.1.09a2.379,2.379,0,0,1,.6,1.687,3.17,3.17,0,0,1-.524,1.407l.142.048a3.175,3.175,0,0,1,1.907,1.564,3.036,3.036,0,0,1,.186,1.1c0,.046,0,.091,0,.138q0,.143,0,.286c0,.146,0,.292,0,.437q0,.14,0,.279c0,.043,0,.087,0,.132a.663.663,0,0,1-.193.562,1.049,1.049,0,0,1-.311.028l-.2,0-.215,0h-.226c-.2,0-.41,0-.614,0h-.642l-1.079,0q-.624,0-1.248,0H-159.3c-.238,0-.475,0-.713,0h-.215l-.2,0h-.17a.378.378,0,0,1-.244-.1.915.915,0,0,1-.092-.56c0-.046,0-.092,0-.139q0-.146,0-.293c0-.147,0-.294,0-.441a2.907,2.907,0,0,1,.711-2.189,4.059,4.059,0,0,1,1.535-.853l-.341-.625h-4.492l-.341.625.3.117a3.08,3.08,0,0,1,1.82,1.713,5.764,5.764,0,0,1,.11,1.374c0,.129,0,.258,0,.388q0,.124,0,.248c0,.075,0,.149,0,.226a.769.769,0,0,1-.191.483.847.847,0,0,1-.311.035l-.2,0-.215,0h-.226c-.2,0-.41,0-.614,0h-.642l-1.079,0q-.624,0-1.248,0h-1.711c-.238,0-.475,0-.713,0h-.215l-.2,0h-.17a.383.383,0,0,1-.244-.095.98.98,0,0,1-.092-.59c0-.049,0-.1,0-.148q0-.155,0-.31c0-.156,0-.313,0-.469a2.849,2.849,0,0,1,.7-2.109,4.472,4.472,0,0,1,1.318-.793l.227-.114-.069-.094a2.408,2.408,0,0,1-.417-1.946,2.365,2.365,0,0,1,1.05-1.414,2.378,2.378,0,0,1,1.23-.307h.224A1.481,1.481,0,0,1-165-.821l.032-.114A2.982,2.982,0,0,1-163.3-2.242c.076-.037.152-.075.227-.114l-.128-.153a2.466,2.466,0,0,1-.384-1.724,2.378,2.378,0,0,1,.931-1.5q.13-.076.263-.146l.123-.071A2.428,2.428,0,0,1-160.045-5.806Zm-2.342.835A1.787,1.787,0,0,0-162.86-3.7a1.651,1.651,0,0,0,.571,1.078,1.722,1.722,0,0,0,1.171.346,1.726,1.726,0,0,0,1.061-.59,1.725,1.725,0,0,0,.326-1.2,1.791,1.791,0,0,0-.781-1.132A1.553,1.553,0,0,0-162.388-4.972Zm-1.8,4.2c-.064.076-.127.153-.188.231l.117.11a2.729,2.729,0,0,1,.849,1.937h4.208l.171-.91a2.3,2.3,0,0,1,.8-1.024,1.16,1.16,0,0,0-.521-.717,3.132,3.132,0,0,0-1.7-.591c-.107.027-.214.055-.32.086A2.538,2.538,0,0,1-162.1-1.73,2.777,2.777,0,0,0-164.189-.767Zm-2.69,1.2a1.72,1.72,0,0,0-.341,1.308,1.754,1.754,0,0,0,.824,1.077,1.8,1.8,0,0,0,1.272.069,2.03,2.03,0,0,0,.914-.868A1.828,1.828,0,0,0-164.264.69a1.707,1.707,0,0,0-.952-.8A1.607,1.607,0,0,0-166.88.43ZM-158.1.377a1.67,1.67,0,0,0-.368,1.247,1.68,1.68,0,0,0,.89,1.181,1.639,1.639,0,0,0,1.2.082A1.872,1.872,0,0,0-155.439,2,1.765,1.765,0,0,0-155.479.7a1.788,1.788,0,0,0-.986-.819A1.667,1.667,0,0,0-158.1.377Zm-10.2,3.806a2.049,2.049,0,0,0-.625.967V6.742h6.539a3.075,3.075,0,0,0-.5-2.384,3.227,3.227,0,0,0-1.774-.857,2.324,2.324,0,0,0-.354.082,2.988,2.988,0,0,1-1.444-.043A2.631,2.631,0,0,0-168.3,4.183Zm8.8-.032a1.931,1.931,0,0,0-.669,1.055V6.742h6.539a3.505,3.505,0,0,0-.348-2.289,3.264,3.264,0,0,0-2.04-.952l-.186.054a2.283,2.283,0,0,1-.689.074h-.13a2.252,2.252,0,0,1-.634-.081A2.612,2.612,0,0,0-159.5,4.151Z" transform="translate(188.388 9.32)" fill="url(#linear-gradient)"/>
    </g>
  </g>
</svg>
