<svg xmlns="http://www.w3.org/2000/svg" xmlns:xlink="http://www.w3.org/1999/xlink" width="38" height="38" viewBox="0 0 38 38">
  <defs>
    <linearGradient id="linear-gradient" x1="0.5" x2="0.5" y2="1" gradientUnits="objectBoundingBox">
      <stop offset="0" stop-color="#ee0d73"/>
      <stop offset="1" stop-color="#fe6308"/>
    </linearGradient>
  </defs>
  <g id="Group_4048" data-name="Group 4048" transform="translate(-897 -996)">
    <rect id="Rectangle_2460" data-name="Rectangle 2460" width="38" height="38" transform="translate(897 996)" fill="none"/>
    <path id="excellence_1_" data-name="excellence (1)" d="M-259.861-4.5l.18.1a2.976,2.976,0,0,1,.884,1.121l.087.171q.133.264.263.529l.086.171q.121.241.239.483l.074.148a1.179,1.179,0,0,1,.167.726.45.45,0,0,1-.17.226.731.731,0,0,1-.535,0,1.418,1.418,0,0,1-.393-.6l-.068-.144q-.108-.228-.213-.458-.139-.3-.281-.6l-.062-.138a2.193,2.193,0,0,0-.768-.947,1.739,1.739,0,0,0-1.1-.011,2.5,2.5,0,0,0-.91,1.194l-.071.147-.151.315q-.2.426-.411.851l-.087.179c-.326.673-.66,1.341-1,2.009l-.17.339-.24.478q-.177.352-.35.706l-.061.125-.109.226a2.371,2.371,0,0,1-1.113,1.135,7.193,7.193,0,0,1-1.293.275l-.193.028-.413.058-.654.093-1.623.23-1.374.2-.643.091-.4.057-.179.025a2.052,2.052,0,0,0-1.269.476,1.573,1.573,0,0,0-.283,1.245,2.43,2.43,0,0,0,.791.993c.457.412.886.851,1.318,1.288l.2.206.188.19c.159.16.322.312.493.46.23.2.446.411.661.627l.118.118.368.37.248.249.554.557.254.254a2.268,2.268,0,0,1,.631,1.706c-.023.263-.066.52-.113.78l-.038.224q-.04.238-.082.475-.065.373-.128.747-.185,1.088-.379,2.174l-.108.612q-.066.372-.134.743a3,3,0,0,0,.005,2.017,1.455,1.455,0,0,0,.922.566,2.932,2.932,0,0,0,1.573-.578.346.346,0,0,1,.237-.064l-.008-.193c-.029-.994-.029-.994.34-1.393a1.206,1.206,0,0,1,.969-.395q.007-.515,0-1.03,0-.175,0-.349a2.083,2.083,0,0,0-.3-1.481c-.087-.086-.176-.17-.267-.252-.051-.06-.1-.122-.147-.185l-.115-.151a5.2,5.2,0,0,1-1.118-3.247c0-.067,0-.133,0-.2A4.741,4.741,0,0,1-266.2,9.2l.117-.073c.121-.088.121-.088.137-.227,0-.051,0-.1,0-.155,0-.087,0-.087,0-.176l0-.191c0-.065,0-.13,0-.2,0-.278,0-.556,0-.835,0-.2,0-.406,0-.609,0-.093,0-.093,0-.188a1.972,1.972,0,0,1,.534-1.436,2,2,0,0,1,1.394-.456,1.774,1.774,0,0,1,.646.194.366.366,0,0,0,.284.05,1.685,1.685,0,0,0,.2-.237,1.743,1.743,0,0,1,1.167-.625,1.872,1.872,0,0,1,1.423.535,3.313,3.313,0,0,1,.264.327l.148-.05.191-.064.16-.059a1.9,1.9,0,0,1,1.349.094,2.124,2.124,0,0,1,.982,1.323l.131-.057a1.782,1.782,0,0,1,1.4.17,1.615,1.615,0,0,1,.71,1.037,2.586,2.586,0,0,1,.031.445,9.056,9.056,0,0,0,.213,1.98c.429,1.873.727,3.991-.332,5.7a6.121,6.121,0,0,1-.75.859,2.86,2.86,0,0,0-.7,2.26q0,.139-.006.279-.007.338-.012.676l.115,0,.153,0,.151,0a1.183,1.183,0,0,1,.819.45,1.482,1.482,0,0,1,.3,1.111c0,.062,0,.062,0,.125,0,.1,0,.2-.005.3l.141.042a5.4,5.4,0,0,1,.662.3,1.529,1.529,0,0,0,1.268.232,1.515,1.515,0,0,0,.758-.688,5.058,5.058,0,0,0-.177-2.325l-.072-.414q-.094-.543-.19-1.085-.153-.868-.3-1.737-.053-.3-.106-.6c-.36-2.05-.36-2.05.105-2.776a3.285,3.285,0,0,1,.37-.42l.312-.312.693-.7.3-.3.433-.434.133-.134c.231-.231.468-.452.716-.665.183-.162.354-.335.525-.509l.114-.114.355-.357.469-.473.107-.108a6.5,6.5,0,0,1,.483-.448,1.211,1.211,0,0,0,.31-.358l.068-.114a1.477,1.477,0,0,0,.112-.9,1.31,1.31,0,0,0-.549-.79,8.019,8.019,0,0,0-2.136-.407l-.609-.087-1.73-.246L-253.5,4.4l-.4-.057c-1.876-.262-1.876-.262-2.395-.752l-.1-.091a3.878,3.878,0,0,1-.677-1.118c-.085-.176-.174-.35-.263-.524l-.1-.2-.2-.392-.093-.184-.084-.164a1.572,1.572,0,0,1-.123-.5c.121-.258.121-.258.283-.34.352-.033.352-.033.505.081a3.227,3.227,0,0,1,.385.675l.155.318q.121.25.24.5t.234.483l.07.15a1.516,1.516,0,0,0,.936.865,5.29,5.29,0,0,0,.776.144l.191.028.622.088.435.063,1.26.181,1.711.246L-249.5,4l.394.057.176.025a2.928,2.928,0,0,1,2.05.917,2.644,2.644,0,0,1,.426,1.88,3.209,3.209,0,0,1-1.205,1.684c-.516.478-1.008.979-1.5,1.478l-.1.105-.193.2c-.161.162-.326.316-.5.466-.235.2-.457.418-.678.638l-.122.121-.254.252-.388.384-.247.247-.117.115a1.535,1.535,0,0,0-.519,1.162c.019.219.058.434.1.65l.033.191q.036.2.073.409.058.325.115.65.141.808.285,1.615.121.682.24,1.364.056.318.114.636c.356,2.016.356,2.016-.129,2.816a2.378,2.378,0,0,1-1.508,1.005,3.351,3.351,0,0,1-1.98-.509l-.013.18a1.707,1.707,0,0,1-.532,1.313,1.072,1.072,0,0,1-.671.213h-.51l-.595,0h-.2l-1.073,0q-.555,0-1.11.006l-.852,0-.409,0c-.191,0-.381,0-.572,0l-.172,0c-.38,0-.38,0-.568-.167a.637.637,0,0,1-.02-.548.392.392,0,0,1,.28-.191h.127l.147,0h.885l.385,0,1.016,0,1.625-.007h.568l.348,0h.16a1.241,1.241,0,0,0,.683-.129,1.129,1.129,0,0,0,.066-.4c0-.07,0-.07,0-.142,0-.05,0-.1,0-.153s0-.1,0-.157q0-.165,0-.33c0-.168,0-.336,0-.5q0-.16,0-.32l0-.152V20.8a.545.545,0,0,0-.191-.343,1.185,1.185,0,0,0-.385-.029h-.119c-.132,0-.264,0-.4,0h-.284q-.385,0-.771,0h-2.159q-.783,0-1.566,0h-2.146q-.377,0-.755,0h-.277c-.126,0-.252,0-.378,0h-.214c-.175.012-.175.012-.278.136a.671.671,0,0,0-.084.365c0,.072,0,.072,0,.146,0,.052,0,.1,0,.156s0,.107,0,.161q0,.169,0,.337c0,.172,0,.345,0,.517q0,.164,0,.328c0,.077,0,.077,0,.157,0,.048,0,.1,0,.145s0,.063,0,.128a.4.4,0,0,0,.191.281,1.942,1.942,0,0,0,.626.069l.275,0,.432.006.418.007h.131c.3.007.3.007.436.1a.692.692,0,0,1,.116.375.793.793,0,0,1-.226.4,1.141,1.141,0,0,1-.229.016l-.143,0h-.651c-.17,0-.34,0-.511,0h-.327l-.153,0a1.328,1.328,0,0,1-.987-.364,2.364,2.364,0,0,1-.395-1.362l-.2.1-.263.126-.132.064a2.342,2.342,0,0,1-1.739.134,2.317,2.317,0,0,1-1.305-1.2,4.926,4.926,0,0,1,.059-2.745q.059-.325.115-.65.11-.63.223-1.26.153-.859.3-1.718.056-.319.114-.638l.069-.392.033-.177a1.636,1.636,0,0,0-.185-1.322,6.727,6.727,0,0,0-.56-.6l-.136-.136-.285-.283-.432-.43-.278-.276-.129-.128c-.229-.226-.463-.441-.706-.651-.186-.165-.36-.341-.534-.518l-.117-.117-.487-.491-.359-.361-.109-.11c-.216-.217-.439-.422-.671-.621a2.178,2.178,0,0,1-.8-1.505,2.342,2.342,0,0,1,.536-1.749,3.537,3.537,0,0,1,2.3-.866l.348-.051.916-.131.916-.132c1.9-.275,1.9-.275,2.4-.342l.327-.045.369-.049a1.78,1.78,0,0,0,1.279-.577,9.068,9.068,0,0,0,.462-.861l.108-.217q.142-.286.283-.572l.226-.456q.673-1.352,1.32-2.716.2-.42.4-.838l.093-.2a2.923,2.923,0,0,1,1.417-1.5A2.5,2.5,0,0,1-259.861-4.5Zm-2.288,9.7a.939.939,0,0,0-.264.733v.189c0,.067,0,.134,0,.2s0,.138,0,.209q0,.33,0,.661,0,.224,0,.447,0,.549,0,1.1h1.7q.006-.656.009-1.311,0-.223,0-.446,0-.321,0-.641l0-.2a1.249,1.249,0,0,0-.338-1.012A.826.826,0,0,0-262.149,5.2Zm-2.635.6a1.416,1.416,0,0,0-.248.992c0,.056,0,.112,0,.17,0,.178,0,.355.007.533q0,.181,0,.363c0,.3.007.59.011.886h1.7q.006-.5.009-.991,0-.168,0-.337c0-.162,0-.324,0-.485,0-.05,0-.1,0-.15a1.328,1.328,0,0,0-.271-.955.894.894,0,0,0-.7-.267A.871.871,0,0,0-264.783,5.8Zm5.132.088a.748.748,0,0,0-.163.51l0,.163q0,.368-.006.735,0,.194,0,.388c0,.186,0,.373-.005.559l0,.175a.661.661,0,0,0,.172.582l.144.081a1.331,1.331,0,0,1,.145.779c0,.1.014.2.025.3a1.063,1.063,0,0,0,.622.057,1.055,1.055,0,0,0,.566-.566,5.829,5.829,0,0,0,.03-.789q0-.116,0-.232,0-.243,0-.485c0-.207,0-.413,0-.62q0-.239,0-.479c0-.113,0-.226,0-.339a1.137,1.137,0,0,0-.258-.9.867.867,0,0,0-.584-.24A.876.876,0,0,0-259.652,5.891Zm2.5,1.377a1.719,1.719,0,0,0-.133.89c0,.063,0,.125,0,.19q0,.2,0,.4c0,.2,0,.4,0,.605q0,.193,0,.386c0,.06,0,.12,0,.182a1.243,1.243,0,0,0,.315.942.873.873,0,0,0,.672.092.875.875,0,0,0,.453-.566,1.485,1.485,0,0,0,.016-.291c0-.056,0-.113,0-.171s0-.121,0-.183,0-.125,0-.19q0-.2,0-.4c0-.2,0-.4,0-.606q0-.193,0-.387c0-.06,0-.12,0-.182a1.267,1.267,0,0,0-.255-.874A.722.722,0,0,0-257.153,7.267Zm-8.769,3.011a4.708,4.708,0,0,0-.637,3.394,5.859,5.859,0,0,0,1.292,2.31l.136.161.123.141c.632.9.316,2.286.336,3.212h7.243l.057-2.037a3.523,3.523,0,0,1,1.019-1.924,4,4,0,0,0,1.089-3.235c-.008-.32-.031-.635-.07-.952l-.128.085-.169.11-.167.109a1.9,1.9,0,0,1-1.177.149,1.578,1.578,0,0,1-.905-.679c-.039-.075-.077-.15-.113-.226l-.094.037a2.422,2.422,0,0,1-1.575.055c-.188-.057-.188-.057-.289.023q-.1.09-.19.184a3.23,3.23,0,0,1-1.99.529l-.164.007-.395.015.077.11a3.479,3.479,0,0,1,.666,2.047c0,.046,0,.092,0,.139s0,.088,0,.134,0,.08,0,.121a.771.771,0,0,1-.064.278c-.091.006-.181.011-.272.014l-.153.008a.321.321,0,0,1-.242-.111,1.118,1.118,0,0,1-.093-.537,2.793,2.793,0,0,0-.654-1.694c-.159-.146-.322-.279-.495-.409a.4.4,0,0,1-.2-.326l-.006-.132-.008-.13a.657.657,0,0,1,.313-.418,1.885,1.885,0,0,1,.5-.02l.146,0c.154,0,.307.008.461.013a3.016,3.016,0,0,0,2.161-.421,1.053,1.053,0,0,0,.3-.424q0-.17,0-.34-.94-.008-1.88-.012l-.873-.005-.843,0-.321,0c-.15,0-.3,0-.451,0l-.133,0A1.363,1.363,0,0,0-265.922,10.279Z" transform="translate(1176.939 1005.24)" fill="url(#linear-gradient)"/>
  </g>
</svg>
