<svg xmlns="http://www.w3.org/2000/svg" xmlns:xlink="http://www.w3.org/1999/xlink" width="38" height="38" viewBox="0 0 38 38">
  <defs>
    <linearGradient id="linear-gradient" x1="0.5" x2="0.5" y2="1" gradientUnits="objectBoundingBox">
      <stop offset="0" stop-color="#ee0d73"/>
      <stop offset="1" stop-color="#fe6308"/>
    </linearGradient>
  </defs>
  <g id="Group_4052" data-name="Group 4052" transform="translate(-944 -2442)">
    <rect id="Rectangle_2460" data-name="Rectangle 2460" width="38" height="38" transform="translate(944 2442)" fill="none"/>
    <g id="ai-brain_1_" data-name="ai-brain (1)" transform="translate(919.313 2432.162)">
      <path id="Path_16908" data-name="Path 16908" d="M-201.9-16.76a3.775,3.775,0,0,1,.982,1.853v1.488h3.089l.114-.4a2,2,0,0,1,1.1-.906,2.147,2.147,0,0,1,1.356.094,2.042,2.042,0,0,1,.993,1.224,2.143,2.143,0,0,1-.361,1.648,1.887,1.887,0,0,1-1.237.643,2.081,2.081,0,0,1-1.562-.552,3.084,3.084,0,0,1-.4-.72l-3.089-.057v2.117q1.455,0,2.911,0,.676,0,1.352,0,.589,0,1.178,0,.312,0,.624,0c.232,0,.465,0,.7,0l.208,0a.93.93,0,0,0,.761-.244q.085-.1.165-.21l.175-.2.1-.114c.211-.238.43-.469.649-.7a3.415,3.415,0,0,0,.451-.531.69.69,0,0,0-.114-.286,2.085,2.085,0,0,1-.165-1.591,1.94,1.94,0,0,1,.965-1.041,2.179,2.179,0,0,1,1.513-.025,2.012,2.012,0,0,1,1.062,1.227A1.919,1.919,0,0,1-188.6-12.6a1.8,1.8,0,0,1-1.162.84c-.12,0-.238-.007-.358-.014a1.174,1.174,0,0,0-.79.124,4.433,4.433,0,0,0-.4.462q-.092.106-.186.211l-.094.11c-.2.231-.416.454-.627.678l-.1.106-.1.105c-.123.136-.237.278-.35.422a.93.93,0,0,1-.7.212h-1.922l-1.234,0-1.405,0-2.89-.006v2.575h8.7l.114-.343a1.915,1.915,0,0,1,1.03-.933,2.157,2.157,0,0,1,1.609.175,1.953,1.953,0,0,1,.829,1.191,2.038,2.038,0,0,1-.394,1.567,1.794,1.794,0,0,1-1.249.65,2.006,2.006,0,0,1-1.532-.557,2.965,2.965,0,0,1-.407-.72l-8.7-.057v3.89l8.7-.057.286-.572a1.852,1.852,0,0,1,1.087-.687,2.061,2.061,0,0,1,1.652.443,2.044,2.044,0,0,1,.6,1.341,2.1,2.1,0,0,1-.765,1.534A2.128,2.128,0,0,1-190.9.369,1.934,1.934,0,0,1-192.042-.5a1.866,1.866,0,0,1-.175-.386l-8.7-.057V1.4l.721,0,2.355,0,1.428,0,1.245,0h1.994a.67.67,0,0,1,.462.21l.083.1c.2.242.419.473.637.7.427.456.427.456.626.683l.091.1a1.343,1.343,0,0,1,.162.231.947.947,0,0,0,.322.329,4.206,4.206,0,0,0,.606.008,1.544,1.544,0,0,1,.939.221l.124.072a1.72,1.72,0,0,1,.727,1.026,2.052,2.052,0,0,1-.279,1.591,1.95,1.95,0,0,1-1.316.744,2.1,2.1,0,0,1-1.5-.5,1.887,1.887,0,0,1-.534-1.326,2.2,2.2,0,0,1,.257-.973q.058-.143.114-.286l-.076-.08A9.739,9.739,0,0,1-193.18,2.6a.48.48,0,0,0-.328-.2c-.194-.013-.385-.014-.579-.012l-.223,0c-.2,0-.4,0-.6,0s-.422,0-.633,0q-.6,0-1.2,0-.682,0-1.364,0-1.4-.005-2.8,0V4.488h3.089l.114-.4a1.969,1.969,0,0,1,1.209-.937,1.9,1.9,0,0,1,1.495.293,1.867,1.867,0,0,1,.776,1.323,1.983,1.983,0,0,1-.447,1.437,1.9,1.9,0,0,1-1.366.6,2.059,2.059,0,0,1-1.376-.564,3.085,3.085,0,0,1-.4-.72l-3.089-.057c.013.623.013.623.031,1.246a2.9,2.9,0,0,1-.9,2.206,3.324,3.324,0,0,1-2.391.9,4.134,4.134,0,0,1-2.8-1.316,3.349,3.349,0,0,1-.8-2.517l-.11-.011a2.925,2.925,0,0,1-1.935-1.092,3.957,3.957,0,0,1-.53-2.273l-.168-.061a3.222,3.222,0,0,1-1.885-1.484,3.573,3.573,0,0,1-.057-2.486.908.908,0,0,0,.05-.432.927.927,0,0,0-.261-.161,3.2,3.2,0,0,1-1.4-1.956,4.4,4.4,0,0,1-.072-1c0-.064,0-.128,0-.194a3.329,3.329,0,0,1,.913-2.4,6.063,6.063,0,0,1,1.565-.98l-.057-.1a3.769,3.769,0,0,1-.315-2.688,3.854,3.854,0,0,1,1.745-2.3,4.2,4.2,0,0,1,1.888-.572l-.007-.2a3.439,3.439,0,0,1,1.009-2.275A4.144,4.144,0,0,1-201.9-16.76Zm-4.8.766a2.615,2.615,0,0,0-.744,1.716l.137.027a3.975,3.975,0,0,1,2.5,1.4l.1.12a1.036,1.036,0,0,1,.215.742.385.385,0,0,1-.117.228.775.775,0,0,1-.479.054,2.528,2.528,0,0,1-.451-.508,2.539,2.539,0,0,0-1.673-1.069,3.964,3.964,0,0,0-2.885.718,2.92,2.92,0,0,0-1.056,1.831,2.893,2.893,0,0,0,.172,1.373l.062.162a1.155,1.155,0,0,0,.282.41,1.733,1.733,0,0,0,.526.013,3.915,3.915,0,0,1,.751.045l.132.017.308.041.017-.2a4.083,4.083,0,0,1,.5-1.858.515.515,0,0,1,.433-.111.434.434,0,0,1,.311.179,1.387,1.387,0,0,1-.175.98,1.921,1.921,0,0,0,.061,1.412,1.669,1.669,0,0,0,.481.549,1.656,1.656,0,0,1,.5.721.573.573,0,0,1-.175.447.874.874,0,0,1-.483.032,1.155,1.155,0,0,1-.325-.3,2.966,2.966,0,0,0-2.053-1.051,3.934,3.934,0,0,0-2.733,1.049,3.187,3.187,0,0,0-.585,2.441,2.389,2.389,0,0,0,1.03,1.545c.094.041.189.08.286.114a15.858,15.858,0,0,0,.729-1.583c.118-.3.118-.3.244-.362.424-.027.424-.027.549.072a.6.6,0,0,1,.1.475,2.184,2.184,0,0,1-.207.64l-.061.14c-.184.415-.4.814-.615,1.213A3.571,3.571,0,0,0-211.616.4a2.08,2.08,0,0,0,1.165,1.105,2.363,2.363,0,0,0,.383.118l.061-.111A2.788,2.788,0,0,1-208.169.145c.78-.2.78-.2,1.134-.12a.528.528,0,0,1,.222.336.655.655,0,0,1-.043.336.956.956,0,0,1-.636.243,2.5,2.5,0,0,0-1.594.8,2.794,2.794,0,0,0-.18,2.058,1.94,1.94,0,0,0,.944,1.048,4.277,4.277,0,0,0,1.157.245,2.57,2.57,0,0,1,.417.08,1.791,1.791,0,0,1-.057.915,2.176,2.176,0,0,0,.515,1.659,3.2,3.2,0,0,0,1.03.8l.138.072a2.84,2.84,0,0,0,1.982.046A2.133,2.133,0,0,0-202,7.562a4.507,4.507,0,0,0,.192-1.554l0-.2a2.373,2.373,0,0,0-.655-1.78,3.383,3.383,0,0,0-2.632-.687c-.112.011-.224.024-.336.039a.593.593,0,0,1-.411-.057.426.426,0,0,1-.182-.375.524.524,0,0,1,.186-.408,5.619,5.619,0,0,1,2.06-.114l-.03-.092a8.481,8.481,0,0,1-.446-2.575l0-.183c0-.057,0-.114,0-.173s0-.1,0-.155a.57.57,0,0,1,.193-.368.929.929,0,0,1,.629,0,1.349,1.349,0,0,1,.069.455,5.075,5.075,0,0,0,1.039,3.577.8.8,0,0,0,.493.317q0-1.7,0-3.4,0-.79,0-1.58,0-.689,0-1.378,0-.364,0-.729,0-.344,0-.688,0-.125,0-.25a4.706,4.706,0,0,0-.958-3.515,3.424,3.424,0,0,0-1.91-.816,1.268,1.268,0,0,1-.057-.572.447.447,0,0,1,.229-.229,3.185,3.185,0,0,1,2.06.629c.163.133.316.27.468.416.088.105.088.105.162.1q0-1.068.006-2.135,0-.5,0-.992,0-.479,0-.958,0-.182,0-.364a3.713,3.713,0,0,0-.71-2.783A3.16,3.16,0,0,0-206.692-15.994Zm15.8,1.949a1.033,1.033,0,0,0-.125.683,1.055,1.055,0,0,0,.572.629,1.328,1.328,0,0,0,.672-.064,1.3,1.3,0,0,0,.468-.619.861.861,0,0,0-.2-.675,1.017,1.017,0,0,0-.8-.317A.9.9,0,0,0-190.891-14.045Zm-5.732.454a.97.97,0,0,0-.308.64,1.112,1.112,0,0,0,.308.676,1,1,0,0,0,.689.192,1.11,1.11,0,0,0,.587-.381.827.827,0,0,0,.128-.674.868.868,0,0,0-.432-.567A.874.874,0,0,0-196.623-13.591Zm5.446,6.812a.985.985,0,0,0-.125.683,1.237,1.237,0,0,0,.447.572.958.958,0,0,0,.826-.039,1.091,1.091,0,0,0,.443-.636.982.982,0,0,0-.229-.7.841.841,0,0,0-.629-.257A.93.93,0,0,0-191.177-6.779Zm.028,4.835a.95.95,0,0,0-.153.711,1.055,1.055,0,0,0,.572.629,1.105,1.105,0,0,0,.8-.118,1.009,1.009,0,0,0,.347-.569.851.851,0,0,0-.218-.679.842.842,0,0,0-.629-.315A.9.9,0,0,0-191.149-1.944Zm-5.5,6.285a.973.973,0,0,0-.274.619.964.964,0,0,0,.247.615,1.032,1.032,0,0,0,.6.254,1.094,1.094,0,0,0,.7-.35.882.882,0,0,0,.182-.647,1.149,1.149,0,0,0-.39-.6A.859.859,0,0,0-196.652,4.342Zm5.808.662a1,1,0,0,0-.192.689,1.133,1.133,0,0,0,.378.587.949.949,0,0,0,.615.154,1.124,1.124,0,0,0,.6-.393.882.882,0,0,0,.086-.754,1.068,1.068,0,0,0-.454-.511A.955.955,0,0,0-190.844,5Z" transform="translate(244.835 32.615)" fill="url(#linear-gradient)"/>
      <path id="Path_16909" data-name="Path 16909" d="M-12.518-.988c.163.108.316.225.471.343a2.728,2.728,0,0,0,1.874.458c.207-.039.41-.084.614-.134a.959.959,0,0,1,.694.045.622.622,0,0,1,.148.54.451.451,0,0,1-.13.257,4.024,4.024,0,0,1-2.871.15,2.925,2.925,0,0,1-1.545-1.03A.752.752,0,0,1-13.187-.9.593.593,0,0,1-12.518-.988Z" transform="translate(49.116 29.509)" fill="url(#linear-gradient)"/>
    </g>
  </g>
</svg>
