<svg id="checked_5_" data-name="checked (5)" xmlns="http://www.w3.org/2000/svg" width="16.644" height="16.644" viewBox="0 0 16.644 16.644">
  <g id="Group_4014" data-name="Group 4014" transform="translate(3.952 2.091)">
    <g id="Group_4013" data-name="Group 4013">
      <path id="Path_5296" data-name="Path 5296" d="M133.784,64.512a.627.627,0,0,0-.887,0l-7.525,7.505-2.715-2.949a.627.627,0,0,0-.923.85l3.157,3.429a.627.627,0,0,0,.448.2h.013a.628.628,0,0,0,.443-.183l7.987-7.966A.627.627,0,0,0,133.784,64.512Z" transform="translate(-121.568 -64.327)" fill="#42526e"/>
    </g>
  </g>
  <g id="Group_4016" data-name="Group 4016">
    <g id="Group_4015" data-name="Group 4015">
      <path id="Path_5297" data-name="Path 5297" d="M16.016,7.694a.627.627,0,0,0-.627.627A7.067,7.067,0,1,1,8.322,1.255.627.627,0,1,0,8.322,0a8.322,8.322,0,1,0,8.322,8.322A.627.627,0,0,0,16.016,7.694Z" fill="#42526e"/>
    </g>
  </g>
</svg>
