<svg xmlns="http://www.w3.org/2000/svg" width="188.387" height="180" viewBox="0 0 188.387 180">
  <g id="Group_4023" data-name="Group 4023" transform="translate(-589 -121)">
    <text id="GDPR" transform="translate(617 284)" fill="#212529" font-size="48" font-family="Poppins-Bold, Poppins" font-weight="700"><tspan x="0" y="0">GDPR</tspan></text>
    <g id="Group_4020" data-name="Group 4020" transform="translate(0.693 30)">
      <g id="Protect" transform="translate(651 138)">
        <path id="Path_5340" data-name="Path 5340" d="M32,3,8,11V26.75a35.993,35.993,0,0,0,19.906,32.2L32,61l4.1-2.05A35.991,35.991,0,0,0,56,26.75V11Z" fill="#2488ff"/>
        <path id="Path_5341" data-name="Path 5341" d="M32,3V61l4.1-2.05A35.991,35.991,0,0,0,56,26.75V11Z" fill="#57a4ff"/>
        <path id="Path_5342" data-name="Path 5342" d="M32,9.32l-18,6V26.75A29.818,29.818,0,0,0,30.58,53.58l1.42.71,1.42-.71A29.818,29.818,0,0,0,50,26.75V15.32Z" fill="#006df0"/>
        <path id="Path_5343" data-name="Path 5343" d="M32,9.32V54.29l1.42-.71A29.818,29.818,0,0,0,50,26.75V15.32Z" fill="#2488ff"/>
      </g>
      <g id="Group_4019" data-name="Group 4019" transform="translate(635.699 128)">
        <path id="Path_5300" data-name="Path 5300" d="M178.2,216h11.382a1.9,1.9,0,0,1,1.9,1.9v9.485a1.9,1.9,0,0,1-1.9,1.9H178.2a1.9,1.9,0,0,1-1.9-1.9V217.9A1.9,1.9,0,0,1,178.2,216Zm0,0" transform="translate(-137.5 -177.566)" fill="#fed42d"/>
        <path id="Path_5301" data-name="Path 5301" d="M228.1,249.9a1.9,1.9,0,1,1-1.9-1.9A1.9,1.9,0,0,1,228.1,249.9Zm0,0" transform="translate(-179.809 -205.772)" fill="#0a51a5"/>
        <path id="Path_5302" data-name="Path 5302" d="M232.3,272h1.9v3.794h-1.9Zm0,0" transform="translate(-186.86 -226.926)" fill="#0a51a5"/>
        <path id="Path_5339" data-name="Path 5339" d="M203.683,138.434h-1.9v-4.743a3.794,3.794,0,1,0-7.588,0v4.743h-1.9v-4.743a5.691,5.691,0,1,1,11.382,0Zm0,0" transform="translate(-151.603 -100)" fill="#fcbf29"/>
      </g>
      <g id="star_3_" data-name="star (3)" transform="translate(672 79.205)">
        <path id="Path_5351" data-name="Path 5351" d="M20.97,19.39a.615.615,0,0,0-.5-.418l-6.51-.945-2.911-5.89a.616.616,0,0,0-1.1,0l-2.912,5.89-6.51.945a.614.614,0,0,0-.341,1.048L4.9,24.6,3.785,31.077a.615.615,0,0,0,.893.648L10.5,28.668l5.823,3.056a.615.615,0,0,0,.893-.647L16.1,24.6l4.711-4.584A.613.613,0,0,0,20.97,19.39Z" transform="translate(0)" fill="#fed42d"/>
        <path id="Path_5352" data-name="Path 5352" d="M266.72,19.39a.626.626,0,0,0-.508-.418l-6.665-.945-2.981-5.89A.632.632,0,0,0,256,11.8V28.668l5.961,3.056a.644.644,0,0,0,.663-.047.607.607,0,0,0,.251-.6L261.737,24.6l4.823-4.584A.6.6,0,0,0,266.72,19.39Z" transform="translate(-245.751)" fill="#fcbf29"/>
      </g>
      <g id="star_3_2" data-name="star (3)" transform="translate(617.689 121)">
        <path id="Path_5351-2" data-name="Path 5351" d="M20.97,19.39a.615.615,0,0,0-.5-.418l-6.51-.945-2.911-5.89a.616.616,0,0,0-1.1,0l-2.912,5.89-6.51.945a.614.614,0,0,0-.341,1.048L4.9,24.6,3.785,31.077a.615.615,0,0,0,.893.648L10.5,28.668l5.823,3.056a.615.615,0,0,0,.893-.647L16.1,24.6l4.711-4.584A.613.613,0,0,0,20.97,19.39Z" transform="translate(0 -11.795)" fill="#fed42d"/>
        <path id="Path_5352-2" data-name="Path 5352" d="M266.72,19.39a.626.626,0,0,0-.508-.418l-6.665-.945-2.981-5.89A.632.632,0,0,0,256,11.8V28.668l5.961,3.056a.644.644,0,0,0,.663-.047.607.607,0,0,0,.251-.6L261.737,24.6l4.823-4.584A.6.6,0,0,0,266.72,19.39Z" transform="translate(-245.751 -11.795)" fill="#fcbf29"/>
      </g>
      <g id="star_3_3" data-name="star (3)" transform="translate(588.307 162)">
        <path id="Path_5351-3" data-name="Path 5351" d="M20.97,19.39a.615.615,0,0,0-.5-.418l-6.51-.945-2.911-5.89a.616.616,0,0,0-1.1,0l-2.912,5.89-6.51.945a.614.614,0,0,0-.341,1.048L4.9,24.6,3.785,31.077a.615.615,0,0,0,.893.648L10.5,28.668l5.823,3.056a.615.615,0,0,0,.893-.647L16.1,24.6l4.711-4.584A.613.613,0,0,0,20.97,19.39Z" transform="translate(0 -11.795)" fill="#fed42d"/>
        <path id="Path_5352-3" data-name="Path 5352" d="M266.72,19.39a.626.626,0,0,0-.508-.418l-6.665-.945-2.981-5.89A.632.632,0,0,0,256,11.8V28.668l5.961,3.056a.644.644,0,0,0,.663-.047.607.607,0,0,0,.251-.6L261.737,24.6l4.823-4.584A.6.6,0,0,0,266.72,19.39Z" transform="translate(-245.751 -11.795)" fill="#fcbf29"/>
      </g>
      <g id="star_3_4" data-name="star (3)" transform="translate(726.311 121)">
        <path id="Path_5351-4" data-name="Path 5351" d="M20.97,19.39a.615.615,0,0,0-.5-.418l-6.51-.945-2.911-5.89a.616.616,0,0,0-1.1,0l-2.912,5.89-6.51.945a.614.614,0,0,0-.341,1.048L4.9,24.6,3.785,31.077a.615.615,0,0,0,.893.648L10.5,28.668l5.823,3.056a.615.615,0,0,0,.893-.647L16.1,24.6l4.711-4.584A.613.613,0,0,0,20.97,19.39Z" transform="translate(0 -11.795)" fill="#fed42d"/>
        <path id="Path_5352-4" data-name="Path 5352" d="M266.72,19.39a.626.626,0,0,0-.508-.418l-6.665-.945-2.981-5.89A.632.632,0,0,0,256,11.8V28.668l5.961,3.056a.644.644,0,0,0,.663-.047.607.607,0,0,0,.251-.6L261.737,24.6l4.823-4.584A.6.6,0,0,0,266.72,19.39Z" transform="translate(-245.751 -11.795)" fill="#fcbf29"/>
      </g>
      <g id="star_3_5" data-name="star (3)" transform="translate(755.693 162)">
        <path id="Path_5351-5" data-name="Path 5351" d="M20.97,19.39a.615.615,0,0,0-.5-.418l-6.51-.945-2.911-5.89a.616.616,0,0,0-1.1,0l-2.912,5.89-6.51.945a.614.614,0,0,0-.341,1.048L4.9,24.6,3.785,31.077a.615.615,0,0,0,.893.648L10.5,28.668l5.823,3.056a.615.615,0,0,0,.893-.647L16.1,24.6l4.711-4.584A.613.613,0,0,0,20.97,19.39Z" transform="translate(0 -11.795)" fill="#fed42d"/>
        <path id="Path_5352-5" data-name="Path 5352" d="M266.72,19.39a.626.626,0,0,0-.508-.418l-6.665-.945-2.981-5.89A.632.632,0,0,0,256,11.8V28.668l5.961,3.056a.644.644,0,0,0,.663-.047.607.607,0,0,0,.251-.6L261.737,24.6l4.823-4.584A.6.6,0,0,0,266.72,19.39Z" transform="translate(-245.751 -11.795)" fill="#fcbf29"/>
      </g>
    </g>
  </g>
</svg>
