<svg xmlns="http://www.w3.org/2000/svg" xmlns:xlink="http://www.w3.org/1999/xlink" width="38" height="38" viewBox="0 0 38 38">
  <defs>
    <linearGradient id="linear-gradient" x1="0.5" x2="0.5" y2="1" gradientUnits="objectBoundingBox">
      <stop offset="0" stop-color="#ee0d73"/>
      <stop offset="1" stop-color="#fe6308"/>
    </linearGradient>
  </defs>
  <g id="Group_4049" data-name="Group 4049" transform="translate(-876 -1561)">
    <rect id="Rectangle_2460" data-name="Rectangle 2460" width="38" height="38" transform="translate(876 1561)" fill="none"/>
    <g id="repair_1_" data-name="repair (1)" transform="translate(884 1566)">
      <path id="Path_16168" data-name="Path 16168" d="M8.671,24.188h4.172a.452.452,0,0,0,.452-.452v-.663h1.717L16.4,24.316a3.3,3.3,0,0,0,2.2.843h2.534v.9a2.788,2.788,0,0,0,5.576,0v-.9h.1a1.555,1.555,0,0,0,1.6-1.493V22.9a1.41,1.41,0,0,0-.224-.761,1.488,1.488,0,0,0,.862-1.326v-.764a1.44,1.44,0,0,0-.455-1.043,1.44,1.44,0,0,0,.455-1.043V17.2a1.487,1.487,0,0,0-.862-1.325,1.41,1.41,0,0,0,.224-.761v-.764a1.555,1.555,0,0,0-1.6-1.493h-.1V10.343A5.809,5.809,0,0,0,26.739.158a.452.452,0,0,0-.671.4V4.975L23.925,6.126,21.782,4.975V.553a.452.452,0,0,0-.671-.4,5.809,5.809,0,0,0,.026,10.185v.226H18.77a3.3,3.3,0,0,0-2.7,1.4l-1.122,1.589H13.3v-.663a.452.452,0,0,0-.452-.452H8.671a.452.452,0,0,0-.452.452V23.736a.452.452,0,0,0,.452.452Zm3.72-.9H9.124V21.265h3.267Zm13.421,2.778a1.883,1.883,0,1,1-3.766,0v-.9h.845a1.181,1.181,0,1,0,2.206,0h.716Zm-1.623-.288a.277.277,0,1,1,0-.392.277.277,0,0,1,0,.392ZM22.042,11.862V10.52h3.766v2.332H22.042ZM19.014,5.245A4.915,4.915,0,0,1,20.877,1.4V5.245a.452.452,0,0,0,.238.4l2.595,1.4a.452.452,0,0,0,.429,0l2.6-1.4a.452.452,0,0,0,.238-.4V1.4a4.9,4.9,0,0,1-.83,8.218H21.708a4.87,4.87,0,0,1-2.694-4.37Zm-3.827,9.214a.452.452,0,0,0,.37-.191l1.257-1.779a2.4,2.4,0,0,1,1.957-1.013h2.367v1.376H19.258v.9h7.557a.653.653,0,0,1,.7.588v.764a.653.653,0,0,1-.7.591h-2.89v.9h3.529a.652.652,0,0,1,.7.588v.764a.652.652,0,0,1-.7.591H23.925v.9h3.529a.652.652,0,0,1,.7.591v.764a.652.652,0,0,1-.7.591H23.925v.9h2.89a.653.653,0,0,1,.7.588v.764a.652.652,0,0,1-.7.588H18.6a2.393,2.393,0,0,1-1.6-.612l-1.517-1.357a.453.453,0,0,0-.3-.115H13.3v-7.7Zm-2.8-1.115V20.36H9.124V13.343Z" transform="translate(-8.219 -0.101)" stroke="#fff" stroke-width="0.2" fill="url(#linear-gradient)"/>
      <path id="Path_16169" data-name="Path 16169" d="M13.2,47.968a.52.52,0,1,0,.52.52.52.52,0,0,0-.52-.52Z" transform="translate(-10.661 -26.309)" stroke="#fff" stroke-width="0.2" fill="url(#linear-gradient)"/>
    </g>
  </g>
</svg>
