<svg xmlns="http://www.w3.org/2000/svg" xmlns:xlink="http://www.w3.org/1999/xlink" width="38" height="38" viewBox="0 0 38 38">
  <defs>
    <linearGradient id="linear-gradient" x1="0.5" x2="0.5" y2="1" gradientUnits="objectBoundingBox">
      <stop offset="0" stop-color="#ee0d73"/>
      <stop offset="1" stop-color="#fe6308"/>
    </linearGradient>
  </defs>
  <g id="Group_4054" data-name="Group 4054" transform="translate(-802 -2765)">
    <rect id="Rectangle_2460" data-name="Rectangle 2460" width="38" height="38" transform="translate(802 2765)" fill="none"/>
    <g id="glasses" transform="translate(789.636 2674.518)">
      <path id="Path_16905" data-name="Path 16905" d="M-144.645-.489l.243.027.194.038.222.042.227.046.24.048c1.42.291,3.253.69,4.184,1.9a1.664,1.664,0,0,1,.349.939.783.783,0,0,1-.475.486,6.606,6.606,0,0,1-4.626-.376l-.389.384-.109.107c-.247.245-.477.5-.7.763-.212.241-.433.474-.654.707l-.3.314-.149.158q-.327.346-.651.695l-.122.131q-.434.466-.865.935-.3.323-.6.642l-.143.152-.276.292-.128.135-.112.119c-.138.154-.265.316-.394.477l22.082-.07-.7-.7c-.255-.288-.255-.288-.372-.424-.208-.239-.427-.468-.646-.7l-.3-.314-.149-.158q-.825-.875-1.638-1.761-.3-.322-.6-.64l-.142-.151-.273-.289c-.247-.262-.483-.528-.71-.807l-.111.034-.588.176-.143.043-.469.14-.153.046a4.762,4.762,0,0,1-3.365-.158.6.6,0,0,1-.329-.369,1.838,1.838,0,0,1,.531-1.186c1.281-1.244,3.476-1.692,5.184-1.87l.167-.024a1.148,1.148,0,0,1,.778.131c.185.161.355.329.525.507l.2.2c.179.178.355.358.531.539s.372.377.559.565q.471.473.937.95.656.67,1.318,1.335.887.895,1.771,1.793l.28.285c.3.305.59.615.868.939.164.189.338.368.514.547l.111.113.231.233.233.237a3.911,3.911,0,0,0,1.321,1.016.953.953,0,0,1,.433.748q.009.368.013.737l.008.257a1.4,1.4,0,0,1-.383,1.193,1.408,1.408,0,0,1-.978.21c0,.114,0,.114,0,.231q.006,1.081.009,2.162,0,.556,0,1.111,0,.537,0,1.074,0,.2,0,.408a4.382,4.382,0,0,1-1.121,3.386,3.81,3.81,0,0,1-2.8,1.081h-.248l-.811,0h-.281l-1.471,0q-.683,0-1.365,0l-1.177,0-.7,0c-.261,0-.522,0-.783,0l-.231,0a3.282,3.282,0,0,1-2.329-.967,7.183,7.183,0,0,1-1.187-2.528q-.073-.223-.147-.445l-.086-.265a1.127,1.127,0,0,0-.516-.653,1.533,1.533,0,0,0-.677.066,4.68,4.68,0,0,0-.862,2.036,3.849,3.849,0,0,1-1.828,2.436,3.513,3.513,0,0,1-1.643.3h-.246l-.8,0h-1.734q-.675,0-1.351,0l-1.165,0-.693,0c-.259,0-.517,0-.775,0l-.227,0a3.958,3.958,0,0,1-2.693-1.067,3.993,3.993,0,0,1-1.1-2.782c0-.09,0-.179,0-.271v-.29q0-.149,0-.3,0-.392,0-.784t0-.8q0-.785,0-1.569l-.27-.065a1.375,1.375,0,0,1-.86-.535,2.428,2.428,0,0,1-.232-1.3c0-.081,0-.162,0-.245q0-.255,0-.51c0-.261,0-.522,0-.783q0-.248,0-.5c0-.078,0-.156,0-.237s0-.145,0-.219,0-.127,0-.193a.464.464,0,0,1,.237-.372,2.111,2.111,0,0,1,.36-.016,1.38,1.38,0,0,0,1.008-.573l.165-.165c.179-.179.355-.361.532-.542l.374-.376q.391-.394.779-.791.545-.558,1.1-1.111.778-.785,1.553-1.575l.151-.154c.274-.28.536-.567.793-.863.419-.482.876-.934,1.323-1.391q.2-.2.39-.405c.188-.2.378-.392.569-.586L-146-.066A1.343,1.343,0,0,1-144.645-.489ZM-145.623.89l-.155.154c-.168.168-.333.339-.5.51l-.351.353q-.462.465-.918.936t-.933.946q-.684.692-1.365,1.388l-.142.145c-.267.274-.522.555-.772.844-.12.137-.245.268-.374.4l-.14.139-.145.143-.153.152-.478.475-.635.631-.148.146-.135.134-.12.119c-.092.08-.092.08-.084.162a4.485,4.485,0,0,0,2.464-.151,3.352,3.352,0,0,0,.471-.617q.128-.151.262-.3l.115-.134c.15-.17.311-.327.473-.486.124-.126.24-.256.356-.391.256-.295.522-.579.791-.863l.3-.314.149-.158q.327-.346.651-.695l.122-.131q.384-.412.765-.826.487-.528.978-1.053l.133-.142.249-.263c.1-.106.193-.216.287-.326a.567.567,0,0,1,.4-.178,3.726,3.726,0,0,1,.9.268l.357.135.173.065a4.076,4.076,0,0,0,2.537.2l.135-.069c-.8-1.2-2.74-1.45-4.046-1.712l-.217-.034-.154-.035A1.017,1.017,0,0,0-145.623.89Zm8.678,1.051a1.686,1.686,0,0,0-.222.3,3.839,3.839,0,0,0,2.659-.092c.322-.112.635-.246.946-.385a1.366,1.366,0,0,1,.727-.082,1.9,1.9,0,0,1,.349.349q.107.108.216.213l.23.228.114.112c.249.248.483.505.713.771.212.241.433.473.654.706l.3.314.149.158q.826.875,1.639,1.762.288.312.578.621l.133.142q.135.143.273.285a3.932,3.932,0,0,1,.561.691,1.433,1.433,0,0,0,.664.635,10.057,10.057,0,0,0,2.236,0c-.367-.444-.768-.85-1.174-1.257l-.228-.229-.745-.747-.257-.258-1.207-1.21q-.7-.7-1.391-1.4l-1.077-1.081-.643-.645q-.3-.3-.6-.605l-.221-.223c-.1-.1-.2-.2-.3-.3l-.171-.171C-132.93-.142-136.206,1.221-136.945,1.941Zm-17.692,7.633c-.165,2.219-.165,2.219.21,3a1.273,1.273,0,0,0,.883.159h2.085q.563,0,1.126,0h1.281c.194,0,.387,0,.581,0l.173,0a1.1,1.1,0,0,0,.789-.237c.438-.875.07-1.956.07-2.935Zm8.106,0v1.537h23.759a1.374,1.374,0,0,0,.157-.769c0-.085,0-.17,0-.258a.719.719,0,0,0-.158-.511Zm0,2.446-.14.769-.21.28v.14a2.776,2.776,0,0,1-1.409.38l-.163,0-.529,0-.369,0-.966.007-.988.008q-.967.009-1.935.015-.007.826-.011,1.651,0,.383,0,.767t0,.742c0,.139,0,.278,0,.417a3.455,3.455,0,0,0,.888,2.559,3.006,3.006,0,0,0,2.258.81h.241c.261,0,.522,0,.783,0h1.691q.659,0,1.318,0,.637,0,1.274,0h.539c.252,0,.5,0,.755,0l.223,0a2.447,2.447,0,0,0,1.786-.7,7.026,7.026,0,0,0,1.079-2.456c.4-1.211.4-1.211.888-1.484l.138-.081a2.06,2.06,0,0,1,1.361-.088,1.652,1.652,0,0,1,.966.932c.092.246.178.494.26.744l.173.505.086.25A3.336,3.336,0,0,0-135,20.4a2.863,2.863,0,0,0,1.212.16h.24l.785,0h1.695q.661,0,1.321,0,.638,0,1.276,0l.54,0c.253,0,.505,0,.758,0l.223,0a2.876,2.876,0,0,0,2.088-.875c1.834-1.916.832-5.765.832-7.687Z" transform="translate(170 99)" fill="url(#linear-gradient)"/>
      <path id="Path_16906" data-name="Path 16906" d="M-29-2.892a1.58,1.58,0,0,1,.537.713,1.7,1.7,0,0,1-.21,1.258,1.6,1.6,0,0,1-1.109.581,1.6,1.6,0,0,1-1.127-.511,1.628,1.628,0,0,1-.21-1.328,1.577,1.577,0,0,1,.786-.86A1.7,1.7,0,0,1-29-2.892Zm-1.17.862c-.134.2-.134.2-.07.424.089.214.089.214.31.336a1.026,1.026,0,0,0,.419-.07.723.723,0,0,0,.14-.629.677.677,0,0,0-.454-.245C-30.014-2.191-30.014-2.191-30.169-2.03Z" transform="translate(50.533 111.871)" fill="url(#linear-gradient)"/>
      <path id="Path_16907" data-name="Path 16907" d="M-10.086-.035h.153l.319,0c.163,0,.326,0,.489,0l.31,0h.148a.851.851,0,0,1,.58.161.836.836,0,0,1,.07.419A.809.809,0,0,1-8.6.942l-.264,0h-.142l-.3,0c-.151,0-.3,0-.452,0-.722-.006-.722-.006-.946-.127-.111-.118-.111-.118-.142-.363.031-.245.031-.245.1-.363A1.036,1.036,0,0,1-10.086-.035Z" transform="translate(26.735 109.701)" fill="url(#linear-gradient)"/>
    </g>
  </g>
</svg>
