<svg xmlns="http://www.w3.org/2000/svg" xmlns:xlink="http://www.w3.org/1999/xlink" width="19" height="14" viewBox="0 0 19 14">
  <defs>
    <linearGradient id="linear-gradient" x1="0.5" x2="0.5" y2="1" gradientUnits="objectBoundingBox">
      <stop offset="0" stop-color="#ee0d73"/>
      <stop offset="1" stop-color="#fe6308"/>
    </linearGradient>
  </defs>
  <path id="menu" d="M3.357,8.8H19.643a1.4,1.4,0,0,0,0-2.8H3.357a1.4,1.4,0,0,0,0,2.8Zm16.286,2.8H3.357a1.4,1.4,0,0,0,0,2.8H19.643a1.4,1.4,0,0,0,0-2.8Zm0,5.6H3.357a1.4,1.4,0,0,0,0,2.8H19.643a1.4,1.4,0,0,0,0-2.8Z" transform="translate(-2 -6)" fill="url(#linear-gradient)"/>
</svg>
