<svg xmlns="http://www.w3.org/2000/svg" xmlns:xlink="http://www.w3.org/1999/xlink" width="38" height="38" viewBox="0 0 38 38">
  <defs>
    <linearGradient id="linear-gradient" x1="0.5" x2="0.5" y2="1" gradientUnits="objectBoundingBox">
      <stop offset="0" stop-color="#ee0d73"/>
      <stop offset="1" stop-color="#fe6308"/>
    </linearGradient>
  </defs>
  <g id="Group_4050" data-name="Group 4050" transform="translate(-912 -2006)">
    <rect id="Rectangle_2460" data-name="Rectangle 2460" width="38" height="38" transform="translate(912 2006)" fill="none"/>
    <g id="working-time" transform="translate(917.963 2013.48)">
      <path id="Path_16188" data-name="Path 16188" d="M19.794,13.52A6.277,6.277,0,1,1,13.52,19.8a6.269,6.269,0,0,1,6.274-6.277ZM11.586.979V2.414a.483.483,0,1,0,.966,0V.979a11.051,11.051,0,0,1,7.021,2.9L18.554,4.9a.485.485,0,0,0,.686.684l1.016-1.018a11.071,11.071,0,0,1,2.917,7.507,11.352,11.352,0,0,1-.073,1.28,7.241,7.241,0,0,0-9.75,9.748,10.8,10.8,0,0,1-1.282.075A11.074,11.074,0,0,1,4.562,20.26L5.58,19.241A.481.481,0,1,0,4.9,18.56L3.88,19.578A11.052,11.052,0,0,1,.973,12.554H2.412a.483.483,0,1,0,0-.966H.973A11.066,11.066,0,0,1,3.88,4.565L4.9,5.586A.482.482,0,0,0,5.58,4.9L4.562,3.883a11.069,11.069,0,0,1,7.024-2.9ZM12.069,0a12.071,12.071,0,0,0,0,24.143A11.883,11.883,0,0,0,13.9,24,7.24,7.24,0,1,0,24,13.9a12.2,12.2,0,0,0,.138-1.831A12.081,12.081,0,0,0,12.069,0Z" fill="url(#linear-gradient)"/>
      <path id="Path_16189" data-name="Path 16189" d="M29.41,24a.483.483,0,0,0-.483.483v.483h-.483A1.457,1.457,0,0,0,27,26.414v.966a1.455,1.455,0,0,0,1.449,1.446h1.934a.477.477,0,0,1,.48.485v.966a.474.474,0,0,1-.48.483H28.445a.477.477,0,0,1-.483-.483.487.487,0,0,0-.483-.485.482.482,0,0,0-.483.485,1.457,1.457,0,0,0,1.449,1.449h.483v.483a.483.483,0,0,0,.966,0v-.483h.485a1.454,1.454,0,0,0,1.446-1.449v-.966a1.451,1.451,0,0,0-1.446-1.446H28.445a.479.479,0,0,1-.483-.485v-.966a.477.477,0,0,1,.483-.483h1.934a.474.474,0,0,1,.48.483.483.483,0,1,0,.966,0,1.454,1.454,0,0,0-1.446-1.449h-.485v-.483A.485.485,0,0,0,29.41,24Z" transform="translate(-9.616 -8.549)" fill="url(#linear-gradient)"/>
      <path id="Path_16190" data-name="Path 16190" d="M15.006,13.247a.963.963,0,1,1-.966.966A.958.958,0,0,1,15.006,13.247Zm0-7.243a.484.484,0,0,0-.483.48v5.857a1.951,1.951,0,0,0-1.388,1.385H8.729a.483.483,0,1,0,0,.966h4.406a1.932,1.932,0,1,0,2.354-2.351V6.484A.479.479,0,0,0,15.006,6Z" transform="translate(-2.937 -2.139)" fill="url(#linear-gradient)"/>
    </g>
  </g>
</svg>
