<svg xmlns="http://www.w3.org/2000/svg" width="16" height="16" viewBox="0 0 16 16">
  <g id="Group_4030" data-name="Group 4030" transform="translate(-531 -5170)">
    <rect id="Rectangle_1180" data-name="Rectangle 1180" width="16" height="16" transform="translate(531 5170)" fill="#fff"/>
    <g id="Layer_2" data-name="Layer 2" transform="translate(532.257 5171.258)">
      <g id="linkedin">
        <path id="icon" d="M11.646,0H1.839A1.839,1.839,0,0,0,0,1.839v9.808a1.839,1.839,0,0,0,1.839,1.839h9.808a1.839,1.839,0,0,0,1.839-1.839V1.839A1.839,1.839,0,0,0,11.646,0ZM4.6,10.672a.284.284,0,0,1-.284.285H3.1a.284.284,0,0,1-.285-.285V5.593A.285.285,0,0,1,3.1,5.308H4.313a.285.285,0,0,1,.284.285Zm-.89-5.845A1.149,1.149,0,1,1,4.856,3.678,1.149,1.149,0,0,1,3.707,4.827Zm7.222,5.865a.261.261,0,0,1-.262.262h-1.3a.261.261,0,0,1-.262-.262V8.313c0-.356.1-1.557-.929-1.557-.8,0-.964.822-1,1.191v2.748a.262.262,0,0,1-.258.262H5.661a.261.261,0,0,1-.261-.262V5.571a.261.261,0,0,1,.261-.262H6.919a.262.262,0,0,1,.262.262v.443a1.782,1.782,0,0,1,1.678-.79c2.083,0,2.069,1.945,2.069,3.013Z" fill="#717171"/>
      </g>
    </g>
  </g>
</svg>
