<svg xmlns="http://www.w3.org/2000/svg" width="16" height="16" viewBox="0 0 16 16">
  <g id="Group_4029" data-name="Group 4029" transform="translate(-531 -5170)">
    <rect id="Rectangle_1180" data-name="Rectangle 1180" width="16" height="16" transform="translate(531 5170)" fill="#fff"/>
    <g id="twitter-_1_" transform="translate(527.116 5683.763)">
      <path id="Path_16757" data-name="Path 16757" d="M5.841-511.934c.024.039,1.092,1.591,2.371,3.455s2.327,3.4,2.327,3.411-1.05,1.247-2.337,2.744l-2.371,2.758c-.032.039,0,.041.5.041H6.87l2.069-2.4c1.138-1.321,2.081-2.407,2.093-2.41s.77,1.077,1.679,2.4l1.654,2.412h1.813c1.718,0,1.81,0,1.788-.044-.012-.022-1.121-1.637-2.461-3.587s-2.439-3.55-2.439-3.557,1.018-1.2,2.264-2.644l2.261-2.631L17.067-512c-.431,0-.531,0-.563.029s-.911,1.05-1.976,2.288-1.944,2.249-1.954,2.244-.721-1.036-1.581-2.288L9.428-512H5.8Zm6.859,6.162c2.083,2.982,3.794,5.431,3.8,5.446a5.942,5.942,0,0,1-.814.017l-.824-.007-3.8-5.429c-2.088-2.987-3.8-5.436-3.8-5.441s.37-.01.824-.01l.821,0Z" fill="#717171"/>
    </g>
  </g>
</svg>
