<svg xmlns="http://www.w3.org/2000/svg" width="16" height="16" viewBox="0 0 16 16">
  <g id="insta" transform="translate(-531 -5170)">
    <rect id="Rectangle_1180" data-name="Rectangle 1180" width="16" height="16" transform="translate(531 5170)" fill="#fff"/>
    <g id="instagram" transform="translate(532.332 5171.331)">
      <path id="Path_16177" data-name="Path 16177" d="M9.727,0H3.61A3.615,3.615,0,0,0,0,3.611V9.728A3.615,3.615,0,0,0,3.61,13.339H9.727a3.615,3.615,0,0,0,3.611-3.611V3.611A3.615,3.615,0,0,0,9.727,0ZM6.668,10.317a3.647,3.647,0,1,1,3.647-3.647A3.651,3.651,0,0,1,6.668,10.317ZM10.4,3.882A1.078,1.078,0,1,1,11.481,2.8,1.079,1.079,0,0,1,10.4,3.882Zm0,0" transform="translate(0 0)" fill="#d83e7e"/>
      <path id="Path_16178" data-name="Path 16178" d="M148.885,146.02a2.865,2.865,0,1,0,2.865,2.865A2.869,2.869,0,0,0,148.885,146.02Zm0,0" transform="translate(-142.217 -142.216)" fill="#d83e7e"/>
      <path id="Path_16179" data-name="Path 16179" d="M388.288,96.3a.3.3,0,1,0,.3.3A.3.3,0,0,0,388.288,96.3Zm0,0" transform="translate(-377.885 -93.792)" fill="#d83e7e"/>
    </g>
  </g>
</svg>
