<svg xmlns="http://www.w3.org/2000/svg" width="15" height="15" viewBox="0 0 15 15">
  <g id="schedule" transform="translate(-1.498 -2.125)">
    <g id="Group_12486" data-name="Group 12486">
      <path id="schedule_2" d="M11.473,13.15l1.05-1.05L9.748,9.325V5.875h-1.5v4.05ZM9,17.125a7.3,7.3,0,0,1-2.925-.591A7.488,7.488,0,0,1,2.089,12.55a7.538,7.538,0,0,1,0-5.85A7.488,7.488,0,0,1,6.073,2.716,7.3,7.3,0,0,1,9,2.125a7.3,7.3,0,0,1,2.925.591A7.488,7.488,0,0,1,15.908,6.7a7.537,7.537,0,0,1,0,5.85,7.488,7.488,0,0,1-3.984,3.984A7.3,7.3,0,0,1,9,17.125Zm0-1.5a5.784,5.784,0,0,0,4.247-1.753A5.784,5.784,0,0,0,15,9.625a5.784,5.784,0,0,0-1.753-4.247A5.784,5.784,0,0,0,9,3.625,5.784,5.784,0,0,0,4.751,5.378,5.784,5.784,0,0,0,3,9.625a5.784,5.784,0,0,0,1.753,4.247A5.784,5.784,0,0,0,9,15.625Z" fill="rgba(28,27,23,0.5)"/>
    </g>
  </g>
</svg>
