<svg id="Component_23_48" data-name="Component 23 – 48" xmlns="http://www.w3.org/2000/svg" width="18.518" height="15.021" viewBox="0 0 18.518 15.021">
  <path id="Path_2" data-name="Path 2" d="M43.864,17.021a10.706,10.706,0,0,0,10.8-10.8V5.7a8.363,8.363,0,0,0,1.852-1.955,8.54,8.54,0,0,1-2.16.617A4,4,0,0,0,56,2.309a9.437,9.437,0,0,1-2.366.926A3.674,3.674,0,0,0,50.86,2a3.865,3.865,0,0,0-3.807,3.807,2.006,2.006,0,0,0,.1.823,10.637,10.637,0,0,1-7.819-4.012,3.94,3.94,0,0,0-.514,1.955,4.088,4.088,0,0,0,1.646,3.189,3.468,3.468,0,0,1-1.749-.514h0a3.76,3.76,0,0,0,3.086,3.7,3.172,3.172,0,0,1-1.029.1,1.751,1.751,0,0,1-.72-.1,3.9,3.9,0,0,0,3.6,2.675,7.768,7.768,0,0,1-4.732,1.646,2.848,2.848,0,0,1-.926-.1,9.711,9.711,0,0,0,5.864,1.852" transform="translate(-38 -2)" fill="#505050" fill-rule="evenodd"/>
</svg>
