<svg xmlns="http://www.w3.org/2000/svg" width="15.984" height="15.984" viewBox="0 0 15.984 15.984">
  <path id="Icon_awesome-linkedin" data-name="Icon awesome-linkedin" d="M14.842,2.25H1.138A1.147,1.147,0,0,0,0,3.4V17.082a1.147,1.147,0,0,0,1.138,1.152h13.7a1.15,1.15,0,0,0,1.142-1.152V3.4A1.15,1.15,0,0,0,14.842,2.25ZM4.831,15.951H2.462V8.322H4.834v7.628ZM3.646,7.281A1.374,1.374,0,1,1,5.02,5.907,1.374,1.374,0,0,1,3.646,7.281Zm10.065,8.67H11.342V12.24c0-.885-.018-2.023-1.231-2.023-1.234,0-1.424.963-1.424,1.959v3.775H6.319V8.322H8.591V9.364h.032a2.5,2.5,0,0,1,2.244-1.231c2.4,0,2.844,1.581,2.844,3.636Z" transform="translate(0 -2.25)" fill="#505050"/>
</svg>
