<svg xmlns="http://www.w3.org/2000/svg" width="22" height="22" viewBox="0 0 22 22">
  <g id="Webinars" transform="translate(-922 -242)">
    <g id="video-streaming_1" transform="translate(924 246)">
      <path id="Path_16756" data-name="Path 16756" d="M52.367-411.7a2.116,2.116,0,0,0-1.138.992c-.229.477-.229.383-.229,6.276,0,3.483.018,5.581.045,5.742a2.093,2.093,0,0,0,1.107,1.474l.3.151H67.918l.3-.151a2.093,2.093,0,0,0,1.107-1.474c.027-.161.045-2.259.045-5.732,0-6.124.013-5.883-.309-6.4a2.033,2.033,0,0,0-.852-.789l-.3-.147-7.664-.009C53.075-411.782,52.578-411.777,52.367-411.7Zm9.1,2.108a5.208,5.208,0,0,1,2.8,1.99,6.555,6.555,0,0,1,.843,1.843,4.225,4.225,0,0,1,.121,1.347,4.124,4.124,0,0,1-.121,1.337,5.279,5.279,0,0,1-3.639,3.837,5.47,5.47,0,0,1-2,.118,5.174,5.174,0,0,1-3.751-2.779,5.681,5.681,0,0,1-.336-4.192,5.278,5.278,0,0,1,3.24-3.407,4.07,4.07,0,0,1,1.7-.236A3.823,3.823,0,0,1,61.465-409.594Z" transform="translate(-51 411.776)"/>
      <path id="Path_16757" data-name="Path 16757" d="M224.293-305.618c-.293.151-.293.146-.293,2.287a7.219,7.219,0,0,0,.08,2.084.576.576,0,0,0,.543.26,34.591,34.591,0,0,0,3.062-2.051.511.511,0,0,0,0-.6,28.986,28.986,0,0,0-3.086-2.041A.585.585,0,0,0,224.293-305.618Z" transform="translate(-216.349 310.692)"/>
    </g>
    <rect id="Rectangle_5647" data-name="Rectangle 5647" width="22" height="22" transform="translate(922 242)" fill="none"/>
  </g>
</svg>
