<svg xmlns="http://www.w3.org/2000/svg" xmlns:xlink="http://www.w3.org/1999/xlink" width="55" height="55" viewBox="0 0 55 55">
  <defs>
    <filter id="Rectangle_5644" x="0" y="0" width="55" height="55" filterUnits="userSpaceOnUse">
      <feOffset dy="3" input="SourceAlpha"/>
      <feGaussianBlur stdDeviation="3" result="blur"/>
      <feFlood flood-opacity="0.161"/>
      <feComposite operator="in" in2="blur"/>
      <feComposite in="SourceGraphic"/>
    </filter>
  </defs>
  <g id="Group_12479" data-name="Group 12479" transform="translate(-142 -1369)">
    <g transform="matrix(1, 0, 0, 1, 142, 1369)" filter="url(#Rectangle_5644)">
      <rect id="Rectangle_5644-2" data-name="Rectangle 5644" width="37" height="37" rx="6" transform="translate(9 6)" fill="#e8f0fe"/>
    </g>
    <g id="handshake_281428" transform="translate(155.835 1828.973)">
      <path id="Path_16886" data-name="Path 16886" d="M6.112-445.506c-.085.053-1.5,1.441-3.139,3.085C.219-439.655,0-439.426,0-439.255s.123.3,1.377,1.559c.753.763,1.436,1.42,1.516,1.463a.409.409,0,0,0,.5-.091.316.316,0,0,1,.155-.1,5.369,5.369,0,0,1,1.009,1.057,3.253,3.253,0,0,1,.187.609,6.924,6.924,0,0,0,1.628,3.128l.358.374-.16.251a1.567,1.567,0,0,0,1.121,2.4c.246.037.251.037.283.278a1.608,1.608,0,0,0,1.372,1.377c.181.027.2.048.23.251a1.6,1.6,0,0,0,.459.9,1.407,1.407,0,0,0,1.094.443,1.417,1.417,0,0,0,.982-.331c.181-.144.219-.155.544-.128a1.4,1.4,0,0,0,1.361-.651l.139-.24.235.171a1.591,1.591,0,0,0,1.1.251,1.5,1.5,0,0,0,1.078-.817c.048-.08.075-.08.294.032a1.53,1.53,0,0,0,1.244-.011,1.477,1.477,0,0,0,.827-1.388l-.027-.256.246-.1a1.62,1.62,0,0,0,.833-.87,1.637,1.637,0,0,0-.064-1.137l-.1-.176.47-.528a6.52,6.52,0,0,0,1.4-2.194,8.5,8.5,0,0,0,.272-.854c.187-.817.144-.747.977-1.585l.779-.79.165.155c.208.192.315.23.5.16a36.756,36.756,0,0,0,2.872-2.834.674.674,0,0,0,.075-.267,30.831,30.831,0,0,0-2.706-2.834c-1.495-1.495-2.781-2.749-2.866-2.786a.393.393,0,0,0-.3-.021,20.627,20.627,0,0,0-1.537,1.452c-1.3,1.3-1.4,1.415-1.4,1.591a.454.454,0,0,0,.187.368l.187.181-.384.4a3,3,0,0,1-.63.507,1.59,1.59,0,0,1-1.228-.037A3.722,3.722,0,0,0,15-441.209a3.777,3.777,0,0,0-1.367.342.507.507,0,0,1-.454.053,3.592,3.592,0,0,0-1.431.123,1.554,1.554,0,0,1-1.132-.032,6.247,6.247,0,0,1-.806-.71l-.625-.614.1-.149a.638.638,0,0,0,.107-.326c0-.16-.128-.3-1.425-1.6a16.436,16.436,0,0,0-1.564-1.457A.426.426,0,0,0,6.112-445.506Zm-.4,5.637-2.642,2.642-1.014-1.014-1.014-1.014L3.683-441.9l2.642-2.642,1.014,1.014,1.014,1.014Zm19.563,1.2-1.014,1.014L21.912-440l-2.349-2.349,1.014-1.014,1.014-1.014,2.349,2.349,2.349,2.349ZM9.24-440.776a3.8,3.8,0,0,0,1.041.838,2.411,2.411,0,0,0,1.644.107l.416-.112-1.431,1.452c-1.617,1.633-1.681,1.719-1.719,2.386a1.432,1.432,0,0,0,.091.7,1.749,1.749,0,0,0,1.916,1.1c.464-.075.689-.224,1.521-1.052l.79-.774,2.8,2.8a30.5,30.5,0,0,1,2.856,2.989.57.57,0,0,1-.641.726c-.16-.027-.491-.336-2.407-2.242a31.562,31.562,0,0,0-2.354-2.247.52.52,0,0,0-.5.214,1.038,1.038,0,0,0-.032.256c0,.149.262.427,2.37,2.546,1.308,1.308,2.4,2.439,2.429,2.52a.613.613,0,0,1-.192.63.615.615,0,0,1-.379.107H17.22l-2.3-2.3c-2.087-2.082-2.317-2.3-2.471-2.3a.446.446,0,0,0-.438.432c0,.16.187.363,1.895,2.076a16.546,16.546,0,0,1,1.906,2.034c.021.347-.069.555-.288.667a.572.572,0,0,1-.662-.08c-.112-.085-1.062-1.009-2.1-2.055-1.756-1.761-1.906-1.9-2.076-1.9a.412.412,0,0,0-.432.422c0,.176.1.294,1.516,1.713a22.132,22.132,0,0,1,1.575,1.665.594.594,0,0,1-.352.742c-.24.091-.267.064-.3-.3a1.586,1.586,0,0,0-1.34-1.447c-.224-.032-.235-.043-.267-.251a1.856,1.856,0,0,0-.422-.886,1.938,1.938,0,0,0-1-.486c-.192,0-.192,0-.224-.262A1.544,1.544,0,0,0,7.879-431.7l-.368-.005-.4-.411a5.868,5.868,0,0,1-1.484-2.733,2.919,2.919,0,0,0-.945-1.708l-.518-.534,2.173-2.178c1.2-1.2,2.183-2.173,2.194-2.173S8.866-441.145,9.24-440.776Zm12.08,1.409,1.762,1.762-.747.763a8.245,8.245,0,0,0-.886,1.03,4.113,4.113,0,0,0-.272.806,6.221,6.221,0,0,1-1.468,2.824,4.943,4.943,0,0,1-.48.507c-.021,0-.646-.609-1.393-1.356l-1.356-1.356.262-.037a1.9,1.9,0,0,0,.849-.251.424.424,0,0,0,0-.63c-.112-.107-.16-.117-.358-.075a5.041,5.041,0,0,1-.657.043,1.42,1.42,0,0,1-.881-.214,5.769,5.769,0,0,1-1.409-1.03l-.16-.165.262-.267c.214-.219.262-.3.262-.454a.4.4,0,0,0-.422-.422c-.176,0-.283.091-1.511,1.313a16.857,16.857,0,0,1-1.468,1.372.88.88,0,0,1-1.158-1.094,9.209,9.209,0,0,1,1.489-1.639,12.183,12.183,0,0,1,2.338-2.114,2.98,2.98,0,0,1,1.329-.278,2.441,2.441,0,0,1,1.052.187,2.411,2.411,0,0,0,1.436.192,2.463,2.463,0,0,0,1.334-.753c.246-.23.454-.416.47-.422S20.353-440.333,21.32-439.367ZM8.37-430.645a.726.726,0,0,1-.043,1.009.715.715,0,0,1-1.041-.171.752.752,0,0,1,.2-.923A.739.739,0,0,1,8.37-430.645Zm1.356,1.479a.635.635,0,0,1,.47.619.639.639,0,0,1-.667.715.641.641,0,0,1-.667-.539.7.7,0,0,1,.641-.843A1.288,1.288,0,0,1,9.726-429.166Zm1.788,1.687a.706.706,0,0,1-.037,1.169.721.721,0,0,1-.929-.23.711.711,0,0,1,.053-.806A.7.7,0,0,1,11.514-427.48Z" fill="#37558c"/>
      <path id="Path_16887" data-name="Path 16887" d="M45.98-328.8a.416.416,0,0,0,.251.737.374.374,0,0,0,.406-.267.421.421,0,0,0-.165-.5A.363.363,0,0,0,45.98-328.8Z" transform="translate(-43.386 -110.445)" fill="#37558c"/>
      <path id="Path_16888" data-name="Path 16888" d="M454.775-336.832a.417.417,0,0,0,.235.769.42.42,0,0,0,.262-.737A.37.37,0,0,0,454.775-336.832Z" transform="translate(-430.317 -102.872)" fill="#37558c"/>
    </g>
  </g>
</svg>
