<svg xmlns="http://www.w3.org/2000/svg" xmlns:xlink="http://www.w3.org/1999/xlink" width="55" height="55" viewBox="0 0 55 55">
  <defs>
    <filter id="Rectangle_5644" x="0" y="0" width="55" height="55" filterUnits="userSpaceOnUse">
      <feOffset dy="3" input="SourceAlpha"/>
      <feGaussianBlur stdDeviation="3" result="blur"/>
      <feFlood flood-opacity="0.161"/>
      <feComposite operator="in" in2="blur"/>
      <feComposite in="SourceGraphic"/>
    </filter>
  </defs>
  <g id="Group_12480" data-name="Group 12480" transform="translate(-142 -1369)">
    <g transform="matrix(1, 0, 0, 1, 142, 1369)" filter="url(#Rectangle_5644)">
      <rect id="Rectangle_5644-2" data-name="Rectangle 5644" width="37" height="37" rx="6" transform="translate(9 6)" fill="#e8f0fe"/>
    </g>
    <g id="project-management_1087927" transform="translate(157.15 1892.795)">
      <path id="Path_16890" data-name="Path 16890" d="M16.492-509.926c-.163.111-.19.2-.311,1.04a8.57,8.57,0,0,1-.163.887.4.4,0,0,1-.418.2c-.121-.028-.241-.162-.678-.743-.562-.752-.687-.854-.915-.771a6.92,6.92,0,0,0-.715.5l-.594.446-.423-.028a7.438,7.438,0,0,0-3.719.8,6.889,6.889,0,0,0-1.894,1.379,7.426,7.426,0,0,0-2.168,4.439c-.051.436-.06.46-.167.46a.424.424,0,0,0-.237.125c-.107.111-.149.232-.26.789a2.955,2.955,0,0,1-.176.664c-.019,0-.279-.172-.58-.381-.78-.548-.72-.562-1.588.316-.59.59-.7.72-.7.836a2.068,2.068,0,0,0,.395.72c.218.316.395.585.395.6a4.592,4.592,0,0,1-.659.162c-.562.111-.683.153-.789.26L0-497.1v1.829l.13.125c.107.107.228.149.775.26.358.074.659.139.669.149a4.709,4.709,0,0,1-.385.618c-.367.539-.409.613-.381.752.023.121.181.306.692.817.859.859.794.845,1.56.316.32-.218.59-.4.608-.4a4.59,4.59,0,0,1,.163.659c.111.562.153.683.26.789l.125.13H6.045l.125-.13c.107-.107.149-.228.26-.789a4.59,4.59,0,0,1,.163-.659c.019,0,.288.181.608.4.72.5.743.5,1.23.014l.334-.33.019.734a2.26,2.26,0,0,0,.116.956,1.551,1.551,0,0,0,.5.645l.158.107.014,1.281.014,1.277.13.279a1.6,1.6,0,0,0,.794.8c.279.125.3.13,1.258.144a3.257,3.257,0,0,0,1.718-.2,1.75,1.75,0,0,0,.669-.72c.121-.255.121-.265.135-1.555l.019-1.3.181-.13a1.468,1.468,0,0,0,.325-.348c.241-.381.274-.576.274-1.634,0-1.537.139-1.857,1.086-2.53.622-.441.743-.552.7-.636a2.812,2.812,0,0,0-.255-.3l-.209-.237-.163.135c-.084.074-.353.274-.59.446A2.9,2.9,0,0,0,14.43-493.8a4.813,4.813,0,0,0-.125,1.467l-.028,1.165-.13.167c-.246.32-.2.316-2.252.3l-1.843-.014-.153-.107c-.293-.214-.306-.279-.339-1.588-.028-1.328-.065-1.5-.409-2.029a3.235,3.235,0,0,0-.98-.943,6.88,6.88,0,0,1-1.263-1.1,6.86,6.86,0,0,1-1.62-3.334,9.369,9.369,0,0,1,.023-2.391,6.707,6.707,0,0,1,3.306-4.559,6.857,6.857,0,0,1,2.865-.85c.344-.028.358-.023.358.07,0,.139.046.218.585.938.5.669.566.831.423,1.017s-.223.19-1.124.06c-.947-.135-1.077-.125-1.179.111a20.252,20.252,0,0,0-.362,2.619c.056.209.209.269,1.031.39.423.06.822.125.887.139a.389.389,0,0,1,.167.6,8.56,8.56,0,0,1-.734.59c-.659.492-.715.552-.715.752a16.521,16.521,0,0,0,1.62,2.2c.2.107.32.056,1.012-.46a6.506,6.506,0,0,1,.789-.539.415.415,0,0,1,.432.176c.06.111.056.209-.042.905a8.375,8.375,0,0,0-.088.961c.023.306.111.339,1.342.515,1.291.19,1.49.2,1.62.07.111-.111.116-.125.255-1.091.1-.724.121-.8.232-.9a.4.4,0,0,1,.418-.074,5.427,5.427,0,0,1,.566.687c.269.358.529.692.58.734.218.19.339.135,1.43-.682,1.031-.775,1.151-.9,1.1-1.114a6.59,6.59,0,0,0-.529-.771,8.181,8.181,0,0,1-.539-.771.4.4,0,0,1,.181-.413c.116-.074.167-.074,1,.042.9.125,1.026.125,1.156-.032.056-.065.418-2.322.423-2.614a.433.433,0,0,0-.1-.223c-.1-.111-.176-.13-1.008-.251a4.347,4.347,0,0,1-.961-.2.471.471,0,0,1-.093-.46,4.392,4.392,0,0,1,.678-.585c.7-.529.836-.664.836-.826a5.459,5.459,0,0,0-.7-1.054c-.887-1.189-.9-1.2-1.114-1.2-.149,0-.274.074-.864.511a6.5,6.5,0,0,1-.789.539.374.374,0,0,1-.413-.251,2.491,2.491,0,0,1,.06-.882c.13-.915.13-1,0-1.147-.1-.116-.172-.13-1.36-.3-.687-.1-1.277-.186-1.3-.186A.372.372,0,0,0,16.492-509.926Zm2.066,1.012a3.2,3.2,0,0,1-.056.548c-.111.748-.1.994.042,1.277a1.169,1.169,0,0,0,1.537.539c.074-.042.367-.237.641-.446a4.069,4.069,0,0,1,.515-.353c.186.237.873,1.17.887,1.216s-.172.2-.423.381c-.734.534-.91.789-.91,1.3a1.15,1.15,0,0,0,.7,1.073,5.677,5.677,0,0,0,.794.162c.344.046.631.1.641.1s-.042.348-.1.752-.116.757-.116.771a3.605,3.605,0,0,1-.59-.06,5.162,5.162,0,0,0-.831-.07,1.176,1.176,0,0,0-1.04,1.411,2.088,2.088,0,0,0,.469.808c.228.3.413.562.413.571s-.279.227-.622.483l-.622.469-.413-.543c-.529-.7-.71-.822-1.216-.822a1.028,1.028,0,0,0-.905.4,1.906,1.906,0,0,0-.358,1.138,3.653,3.653,0,0,1-.088.529c-.028.037-.223.028-.785-.051-.864-.125-.785-.042-.678-.743.1-.678.093-.919-.06-1.212a1.145,1.145,0,0,0-1.151-.631c-.306.032-.441.1-1.031.548l-.488.367-.455-.613c-.255-.334-.46-.627-.46-.641a3.871,3.871,0,0,1,.511-.418,4.341,4.341,0,0,0,.627-.557,1.186,1.186,0,0,0-.367-1.695,2.6,2.6,0,0,0-.868-.218c-.367-.051-.673-.1-.683-.107a14.946,14.946,0,0,1,.218-1.518,3.164,3.164,0,0,1,.655.06c.836.121,1.128.065,1.481-.288a1.023,1.023,0,0,0,.32-.743c.028-.395-.056-.58-.525-1.2a2.584,2.584,0,0,1-.339-.511c.014-.037,1.175-.929,1.216-.929.009,0,.2.241.418.534a3.7,3.7,0,0,0,.576.645,1.156,1.156,0,0,0,1.5-.181c.209-.214.288-.436.385-1.138.042-.293.084-.557.093-.585s.246-.019.771.06C18.2-508.979,18.549-508.923,18.558-508.914Zm-13.8,10.1c.042.139.074.26.074.265a1.546,1.546,0,0,1-.241.065,2.458,2.458,0,0,0-1.825,2.075A2.416,2.416,0,0,0,3.844-494.2a2.363,2.363,0,0,0,3.236-.682l.149-.223.135.111c.074.056.274.2.441.325a2.349,2.349,0,0,1,.785.854l.1.214-.423.422-.418.418-.469-.316a3.222,3.222,0,0,0-.645-.362.778.778,0,0,0-.859.418,5.006,5.006,0,0,0-.172.645l-.107.525H4.657l-.079-.395c-.167-.845-.306-1.073-.724-1.184-.269-.074-.45,0-.984.358l-.46.311-.353-.358-.358-.353.316-.464a2.939,2.939,0,0,0,.353-.641.784.784,0,0,0-.562-.915c-.125-.037-.409-.107-.622-.149l-.395-.079v-.947l.52-.107a3.682,3.682,0,0,0,.645-.167.83.83,0,0,0,.418-.859,2.956,2.956,0,0,0-.348-.622,4.908,4.908,0,0,1-.306-.483,3.793,3.793,0,0,1,.348-.376l.344-.344.488.334c.529.358.7.418.984.339a.859.859,0,0,0,.6-.724c.037-.186.037-.181.116.209C4.643-499.242,4.713-498.954,4.754-498.815Zm.52,1.314a7.333,7.333,0,0,0,1.082,1.565l.255.292-.111.209a1.723,1.723,0,0,1-.826.71,1.279,1.279,0,0,1-.636.084,1.467,1.467,0,0,1-1.333-.91,1.041,1.041,0,0,1-.121-.7,1.525,1.525,0,0,1,.125-.618,1.559,1.559,0,0,1,1.268-.873C5.144-497.743,5.158-497.729,5.274-497.5Zm8.237,8v.395H10.354v-.362a1.369,1.369,0,0,1,.033-.395c.014-.019.724-.033,1.579-.033h1.546Zm0,1.472a.874.874,0,0,1-.358.78c-.167.116-.19.116-1.17.13-1.128.014-1.2,0-1.458-.32a.728.728,0,0,1-.158-.45c-.042-.464-.181-.427,1.588-.427h1.555Z" transform="translate(0 -1.472)" fill="#37558c"/>
      <path id="Path_16891" data-name="Path 16891" d="M300.193-430.787a3.134,3.134,0,0,0-2.173,1.7,2.82,2.82,0,0,0-.32,1.407,3.023,3.023,0,0,0,.919,2.187,2.4,2.4,0,0,0,.817.59,2.694,2.694,0,0,0,1.458.33,2.462,2.462,0,0,0,.882-.125,3.143,3.143,0,0,0,1.908-1.676,3.168,3.168,0,0,0-.738-3.673,3.622,3.622,0,0,0-1.449-.743A3.427,3.427,0,0,0,300.193-430.787Zm1.2.789a2.435,2.435,0,0,1,1.732,1.718,2.363,2.363,0,0,1-.636,2.243,2.322,2.322,0,0,1-3.32-.014,2.3,2.3,0,0,1,.019-3.315A2.3,2.3,0,0,1,301.4-430Z" transform="translate(-283.878 -76.947)" fill="#37558c"/>
      <path id="Path_16893" data-name="Path 16893" d="M140.524-414.791a5.588,5.588,0,0,0-2.164,3.366,5.535,5.535,0,0,0,2.224,5.595,9.107,9.107,0,0,0,1.068.6,2.564,2.564,0,0,1,1.008.664,2.416,2.416,0,0,1,.65,1.23c.088.553.037.5.469.5h.385l-.033-.316a2.783,2.783,0,0,0-.228-.938,3.147,3.147,0,0,0-.734-1.086,3.329,3.329,0,0,0-1.165-.761,4.967,4.967,0,0,1-1.5-.984,4.772,4.772,0,0,1-1.43-2.879,4.748,4.748,0,0,1,1.829-4.285,1.407,1.407,0,0,0,.311-.269,5.8,5.8,0,0,0-.39-.645S140.682-414.907,140.524-414.791Z" transform="translate(-131.832 -92.062)" fill="#37558c"/>
      <path id="Path_16897" data-name="Path 16897" d="M249-135.42v.58h.789V-136H249Z" transform="translate(-237.439 -358.108)" fill="#37558c"/>
    </g>
  </g>
</svg>
